<svg width="1034" height="1025" viewBox="0 0 1034 1025" fill="none" xmlns="http://www.w3.org/2000/svg">
<rect width="1024" height="1024" rx="140" fill="white"/>
<path d="M480.941 952.472C442.363 948.233 405.279 940.235 369.435 926.875C303.129 902.161 246.263 863.417 197.83 812.195C157.221 769.247 126.907 719.961 106.626 664.542C92.2985 625.391 83.8396 585.1 81.0261 543.445C77.374 489.374 83.4935 436.584 99.0184 384.755C121.928 308.274 162.081 242.222 220.796 187.882C261.516 150.196 307.574 120.465 359.642 100.326C403.943 83.1918 449.823 73.7835 497.187 70.8241C549.416 67.5607 600.384 74.0721 650.466 88.8935C723.622 110.544 786.317 149.32 839.49 203.47C906.771 271.987 945.682 354.429 959.285 448.987C969.343 518.898 963.298 587.57 941.256 654.595C921.243 715.449 889.755 769.519 842.716 814.004C797.566 856.701 743.798 878.965 681.798 878.547C610.286 878.065 551.818 848.979 508.888 791.696C481.443 755.074 469.444 712.715 475.403 667.526C483.238 608.118 514.21 563.796 572.678 543.998C621.884 527.336 666.575 538.36 702.786 576.091C739.817 614.677 737.793 677.627 699.198 711.687C677.534 730.805 652.149 736.182 624.906 726.471C600.066 717.616 583.986 699.87 579.052 673.461C574.325 648.157 588.307 624.448 611.121 618.29C630.898 612.951 650.687 622.495 655.235 639.566C657.788 649.151 653.769 659.969 646.429 663.173C645.407 661.113 647.046 659.787 647.964 658.478C657.591 644.753 643.426 629.12 630.58 628.754C614.378 628.292 600.03 640.215 597.836 656.512C593.683 687.368 623.281 714.121 654.074 708.278C688.544 701.737 709.919 668.272 703.782 631.729C697.243 592.788 661.692 562.986 621.771 559.844C570.081 555.776 522.153 594.899 512.647 648.134C503.346 700.223 529.325 760.085 575.906 790.135C629.073 824.432 683.273 822.143 736.255 790.707C784.301 762.201 810.611 717.894 816.863 663.322C823.281 607.289 804.409 558.826 765.053 518.149C748.178 500.707 728.152 488.094 706.643 477.396C699.868 474.026 699.847 473.332 704.282 467.191C730.946 430.271 763.258 399.126 801.533 374.384C826.559 358.207 853.694 346.405 882.781 339.331C884.716 338.86 886.66 338.427 888.583 337.915C892.397 336.901 893.585 334.84 891.604 331.11C876.664 302.982 860.429 275.726 838.987 251.87C835.963 248.506 833.042 247.506 828.525 248.741C796.472 257.501 768.825 274.084 743.942 295.59C714.493 321.042 692.051 352.054 672.439 385.317C660.208 406.062 649.373 427.516 639.957 449.633C637.149 456.228 633.567 459.161 626.537 458.096C623.757 457.674 620.786 458.798 617.559 456.831C618.241 448.812 621.743 441.455 625.147 434.219C641.779 398.857 659.955 364.285 682.566 332.31C707.576 296.942 737.197 266.3 776.736 246.693C788.065 241.075 800.049 237.22 812.517 234.849C815.23 234.333 818.321 234.43 820.48 232.07C820.47 228.967 818.073 227.413 816.278 225.588C800.273 209.317 782.785 194.817 764.033 181.762C758.605 177.983 753.636 177.35 747.335 179.469C702.731 194.472 670.853 224.443 646.988 263.769C626.576 297.403 613.278 334.088 601.513 371.375C592.957 398.49 585.884 426.004 579.505 453.702C578.829 456.639 578.972 460.303 576.066 462.002C572.665 463.99 568.357 465.945 564.781 464.598C560.636 463.037 563.517 458.6 563.899 455.769C572.625 391.141 589.757 328.962 618.921 270.329C634.472 239.064 654.987 211.773 682.985 190.441C697.018 179.75 712.703 172.188 729.372 166.554C730.808 166.069 732.484 166.027 733.335 163.832C732.003 160.859 728.836 159.539 726.089 157.971C708.771 148.089 690.532 140.107 672.19 132.347C669.154 131.063 666.272 131.369 663.156 132.279C634.504 140.647 611.885 157.767 593.181 180.371C567.934 210.882 554.22 246.696 545.847 284.807C535.462 332.08 531.32 380.138 528.198 428.306C527.229 443.253 526.488 458.214 525.561 473.164C525.426 475.333 525.159 477.605 524.361 479.594C523.487 481.771 521.3 482.913 518.98 482.794C516.328 482.659 516.225 480.233 516.016 478.328C512.6 447.16 511.131 415.918 512.729 384.578C514.514 349.57 518.188 314.751 525.408 280.432C535.184 233.962 549.865 189.65 584.857 154.939C597.706 142.193 612.916 132.829 628.606 124.122C630.351 123.153 632.576 122.574 632.227 120.062C631.947 118.04 630.023 117.419 628.298 116.986C611.783 112.845 595.24 109.027 578.202 107.367C559.412 105.535 543.964 112.761 529.859 123.793C511.045 138.508 497.531 157.493 486.967 178.653C468.323 215.999 461.971 255.959 461.868 297.21C461.735 350.239 466.643 402.811 476.015 455.006C478.738 470.173 480.716 485.471 483.065 500.705C483.749 505.147 483.415 509.095 478.483 511.263C474.845 509.785 474.477 506.173 473.499 503.215C463.161 471.952 456.798 439.74 451.122 407.405C444.292 368.497 440.879 329.276 441.358 289.732C441.737 258.476 444.686 227.434 455.199 197.949C467.353 163.866 485.692 133.357 515.075 110.688C516.646 109.476 518.147 108.165 519.6 106.814C520.043 106.402 520.216 105.703 520.435 105.285C520.209 103.65 519.079 103.394 517.98 103.388C500.673 103.29 483.53 104.686 466.603 108.539C452.049 111.851 440.382 119.831 429.935 130.022C399.296 159.91 382.517 196.272 378.267 238.655C374.549 275.743 379.42 312.016 387.622 348.092C402.175 412.104 426.052 473.168 446.849 535.207C448.223 539.308 450.113 543.362 443.903 545.243C440.752 543.724 440.024 540.489 438.674 537.83C420.484 502.013 403.394 465.645 389.892 427.831C375.056 386.281 363.238 343.806 358.206 299.808C354.342 266.017 355.739 232.358 364.994 199.501C372.675 172.231 385.579 147.513 405.383 126.744C406.698 125.366 408.451 124.164 408.793 121.619C406.269 119.833 403.707 121.291 401.468 122.103C382.347 129.03 362.983 135.301 344.606 144.198C335.944 148.392 329.145 154.324 323.636 161.981C296.644 199.495 288.159 241.426 293.045 286.775C298.208 334.695 316.429 378.329 336.593 421.382C360.785 473.034 389.904 521.953 419.881 570.398C421.387 572.831 422.682 575.398 423.995 577.944C425.033 579.956 424.725 581.961 422.975 583.322C420.886 584.946 419.23 583.437 417.821 581.972C411.526 575.424 406.297 568.024 400.8 560.832C371.514 522.518 344.765 482.58 322.675 439.672C306.182 407.637 291.937 374.625 282.503 339.836C269.895 293.342 265.985 246.597 281.922 199.876C285.025 190.781 289.233 182.131 293.292 173.419C292.85 173.023 292.408 172.628 291.965 172.232C284.605 177.652 277.066 182.851 269.932 188.551C262.342 194.616 255.273 201.322 247.733 207.451C234.367 218.314 226.123 232.265 221.592 248.667C215.984 268.965 212.173 289.534 214.012 310.645C216.819 342.876 226.976 373.091 240.958 402.08C265.829 453.648 301.574 497.753 337.857 541.47C359.021 566.97 381.336 591.46 403.625 615.975C405.95 618.533 408.861 621.206 405.205 625.259C401.098 624.626 398.328 621.62 395.413 619.159C353.921 584.14 315.75 545.837 281.709 503.572C250.636 464.993 224.538 423.408 207.675 376.612C195.135 341.814 190.817 306.04 196.496 269.282C196.776 267.468 197.77 265.467 196.294 263.481C193.527 264.869 192.188 267.526 190.555 269.761C179.732 284.576 170.358 300.292 161.009 316.068C147.115 339.516 147.05 364.461 152.193 389.757C159.682 426.596 180.211 457.07 202.644 486.227C234.78 527.996 274.209 562.507 314.865 595.659C338.151 614.647 361.134 634.016 385.634 651.518C391.463 655.681 397.888 659.944 401.899 666.639C398.373 668.896 396.215 666.586 394.058 665.528C363.957 650.76 336.342 632.011 309.398 612.289C274.739 586.92 241.712 559.578 212.014 528.498C186.424 501.718 163.064 473.27 148.522 438.694C142.598 424.606 138.57 409.98 135.911 394.95C135.511 392.685 135.505 390.189 133.298 387.506C129.137 397.289 126.687 406.997 124.386 416.727C118.616 441.121 117.069 465.624 125.031 489.786C133.714 516.137 147.817 539.447 167.205 559.443C193.558 586.621 224.456 607.865 256.484 627.762C300.018 654.807 346.851 675.282 393.082 696.985C395.623 698.178 398.636 698.899 398.953 702.896C394.527 705.986 390.053 703.863 385.917 702.419C361.489 693.893 336.855 685.938 313.188 675.342C278.424 659.779 244.057 643.457 212.491 621.991C184.982 603.283 159.487 582.194 138.419 556.24C130.72 546.755 124.803 536.173 119.683 525.127C118.605 522.801 117.933 520.181 115.448 518.28C113.055 520.954 113.853 523.916 113.952 526.573C116.538 595.56 150.012 644.584 211.931 674.169C258.554 696.446 307.811 711.703 357.667 725.055C369.202 728.144 380.685 731.369 392.547 733.034C394.938 733.37 397.291 734.118 399.597 734.872C401.334 735.439 402.91 736.462 402.647 738.635C402.377 740.874 400.532 741.401 398.721 741.374C393.634 741.297 388.491 741.465 383.476 740.774C326.032 732.862 269.857 719.997 216.739 696.202C191.481 684.887 166.731 672.473 147.097 652.135C143.025 647.916 140.175 642.495 135.073 639.342C133.282 640.449 133.753 641.966 134.116 643.053C140.975 663.605 148.299 684.02 162.678 700.799C180.951 722.121 205.049 734.337 231.248 743.047C256.727 751.518 283.076 756.022 309.491 760.314C339.885 765.253 370.447 768.101 401.233 768.838C404.805 768.923 411.005 767.264 411.159 772.348C411.308 777.265 404.928 776.23 401.385 776.655C374.247 779.903 346.967 779.179 319.795 777.76C288.116 776.107 256.945 770.732 226.735 760.677C213.935 756.417 201.815 750.575 189.942 744.244C189.488 745.049 189.018 745.576 189.122 745.74C200.89 764.266 213.071 782.524 233.996 792.13C251.81 800.308 270.681 805.009 290.203 806.689C330.817 810.184 371.085 806.232 411.265 800.656C415.478 800.071 419.922 798.95 424.256 801.611C423.315 805.927 419.711 806.418 416.794 807.457C396.647 814.629 375.665 817.822 354.51 820.044C326.312 823.005 298.096 825.704 269.825 820.758C264.402 819.81 258.987 818.818 253.564 817.871C253.443 817.85 253.269 818.133 252.832 818.546C254.728 822.072 258.219 824.076 261.12 826.656C269.749 834.327 279.409 840.566 289.172 846.646C294.314 849.849 299.996 851.521 306.085 851.923C331.806 853.623 356.73 848.521 381.607 843.141C399.321 839.311 417.172 835.961 434.019 828.899C436.32 827.934 439.57 826.614 440.904 830.067C442.029 832.983 439.083 834.264 437.052 835.44C424.909 842.473 411.606 846.74 398.344 850.97C376.005 858.095 353.611 865.125 330.028 867.086C328.709 867.196 327.362 867.375 325.986 869.392C330.623 873.613 336.66 875.724 341.936 878.995C353.936 886.434 366.61 887.739 380.196 884.383C393.324 881.141 406.284 877.407 418.749 872.216C429.972 867.542 440.946 862.276 452.053 857.323C454.816 856.091 457.622 854.418 460.716 856.568C461.63 859.784 459.209 861.072 457.307 862.377C439.228 874.782 420.421 885.932 400.239 894.648C397.831 895.688 395.123 896.173 393.901 898.902C401.206 906.245 420.571 909.663 430.442 905.022C444.057 898.623 457.385 891.662 469.895 883.25C471.177 882.388 472.499 881.565 473.877 880.87C476.124 879.737 478.586 877.018 480.946 879.73C483.544 882.715 480.491 885.12 478.71 887.094C472.01 894.516 463.839 900.242 455.836 906.146C453.373 907.962 450.609 909.488 449.342 912.506C455.148 917.443 470.45 918.912 476.444 914.968C483.644 910.231 490.724 905.312 497.837 900.444C500.09 898.903 502.409 897.158 504.921 899.679C507.734 902.501 504.807 904.451 503.444 906.489C500.44 910.985 495.819 914.337 493.162 920.863C521.317 923.214 548.502 922.474 575.614 918.958C575.692 918.318 575.769 917.678 575.847 917.038C567.097 913.062 558.112 909.525 549.634 905.04C481.073 868.766 437.188 813.265 421.461 737.32C411.066 687.126 416.26 637.927 440.216 592.006C469.888 535.125 514.794 496.306 579.4 484.772C642.026 473.591 698.094 489.054 743.419 534.346C781.386 572.285 796.858 618.706 787.425 672.281C777.555 728.341 731.464 773.706 674.819 783.292C620.597 792.468 567.287 766.575 545.053 719.421C529.485 686.405 527.314 653.025 547.388 620.813C577.713 572.153 643.159 567.442 674.885 603.532C699.226 631.221 696.922 668.413 673.511 688.446C655.5 703.859 629.299 703.259 613.882 687.166C602.27 675.047 601.335 656.333 612.112 645.223C617.157 640.022 623.348 637.184 631.061 638.691C630.812 641.987 628.598 641.609 627.108 641.964C618.668 643.975 614.442 650.111 612.896 657.79C611.424 665.098 615.042 671.052 620.769 675.585C630.369 683.183 644.392 683.447 654.871 676.112C674.355 662.475 675.021 637.783 661.386 621.305C637.812 592.816 595.62 594.861 571.515 625.125C547.565 655.193 550.039 692.248 575.625 724.839C608.075 766.175 673.288 768.368 714.413 733.672C758.385 696.575 769.003 631.79 739.031 581.045C712.363 535.896 671.923 514.411 620.178 512.109C541.794 508.621 479.36 563.976 460.546 632.067C440.574 704.346 458.564 768.772 507.722 824.349C543.748 865.078 590.151 888.505 643.838 896.367C682.819 902.076 721.083 897.238 757.933 882.787C760.037 881.962 762.051 879.928 766.46 882.46C678.859 939.089 583.826 960.168 480.941 952.472Z" fill="#3E3E3E"/>
</svg>
