<svg width="1043" height="1024" viewBox="0 0 1043 1024" fill="none" xmlns="http://www.w3.org/2000/svg">
<rect width="1024" height="1024" rx="110" fill="white"/>
<path d="M473.442 818.793C444.407 815.59 416.497 809.546 389.519 799.451C339.616 780.777 296.818 751.502 260.366 712.798C229.803 680.346 206.988 643.105 191.724 601.229C180.94 571.647 174.574 541.201 172.456 509.727C169.708 468.87 174.313 428.981 185.998 389.819C203.24 332.029 233.46 282.119 277.651 241.058C308.297 212.582 342.962 190.118 382.149 174.9C415.491 161.953 450.021 154.844 485.669 152.608C524.977 150.142 563.337 155.062 601.029 166.262C656.089 182.621 703.275 211.92 743.294 252.837C793.93 304.609 823.216 366.903 833.454 438.353C841.024 491.179 836.474 543.068 819.885 593.713C804.823 639.695 781.124 680.551 745.722 714.164C711.741 746.427 671.273 763.25 624.611 762.934C570.79 762.57 526.785 740.592 494.475 697.309C473.819 669.637 464.788 637.629 469.274 603.484C475.17 558.595 498.48 525.105 542.485 510.145C579.518 497.555 613.154 505.884 640.407 534.394C668.277 563.551 666.754 611.116 637.706 636.853C621.402 651.298 602.297 655.362 581.793 648.023C563.098 641.332 550.996 627.924 547.282 607.968C543.724 588.848 554.248 570.934 571.418 566.281C586.303 562.247 601.196 569.458 604.619 582.357C606.541 589.6 603.516 597.773 597.992 600.194C597.222 598.638 598.456 597.636 599.147 596.647C606.392 586.277 595.731 574.464 586.063 574.187C573.869 573.839 563.071 582.847 561.42 595.162C558.294 618.477 580.57 638.692 603.745 634.277C629.688 629.334 645.775 604.048 641.157 576.436C636.235 547.011 609.479 524.492 579.434 522.118C540.531 519.044 504.458 548.606 497.304 588.831C490.304 628.19 509.856 673.423 544.914 696.129C584.929 722.044 625.721 720.315 665.597 696.561C701.757 675.021 721.559 641.543 726.264 600.307C731.094 557.968 716.891 521.349 687.27 490.613C674.57 477.434 659.498 467.903 643.31 459.819C638.211 457.273 638.195 456.749 641.533 452.108C661.601 424.211 685.92 400.677 714.726 381.982C733.561 369.758 753.984 360.841 775.876 355.495C777.332 355.14 778.795 354.812 780.242 354.426C783.112 353.659 784.007 352.102 782.516 349.284C771.272 328.03 759.053 307.435 742.915 289.409C740.639 286.867 738.441 286.112 735.041 287.044C710.918 293.664 690.11 306.194 671.382 322.444C649.218 341.676 632.328 365.109 617.567 390.243C608.362 405.919 600.207 422.129 593.12 438.841C591.007 443.824 588.311 446.041 583.021 445.236C580.928 444.917 578.692 445.767 576.263 444.28C576.776 438.22 579.412 432.662 581.974 427.194C594.492 400.474 608.171 374.351 625.189 350.191C644.012 323.466 666.305 300.312 696.063 285.497C704.59 281.252 713.609 278.339 722.993 276.548C725.035 276.158 727.361 276.231 728.986 274.448C728.978 272.103 727.175 270.929 725.824 269.55C713.778 257.255 700.616 246.299 686.503 236.435C682.418 233.579 678.678 233.1 673.936 234.702C640.366 246.038 616.374 268.685 598.412 298.4C583.05 323.814 573.041 351.534 564.186 379.708C557.747 400.197 552.424 420.987 547.623 441.916C547.114 444.135 547.222 446.903 545.035 448.187C542.475 449.689 539.232 451.166 536.541 450.149C533.422 448.969 535.59 445.616 535.878 443.478C542.445 394.644 555.339 347.661 577.288 303.357C588.992 279.732 604.432 259.111 625.505 242.992C636.066 234.914 647.87 229.2 660.416 224.943C661.497 224.576 662.759 224.545 663.399 222.886C662.397 220.64 660.013 219.642 657.945 218.458C644.911 210.99 631.184 204.959 617.379 199.096C615.095 198.126 612.925 198.357 610.581 199.044C589.016 205.367 571.993 218.303 557.916 235.383C538.914 258.438 528.593 285.499 522.291 314.296C514.475 350.016 511.358 386.33 509.008 422.726C508.279 434.02 507.721 445.325 507.023 456.621C506.922 458.261 506.721 459.977 506.12 461.48C505.463 463.125 503.816 463.988 502.07 463.898C500.075 463.796 499.997 461.963 499.84 460.523C497.269 436.973 496.163 413.365 497.366 389.685C498.709 363.232 501.474 336.922 506.908 310.991C514.266 275.877 525.315 242.395 551.651 216.166C561.321 206.536 572.769 199.46 584.578 192.881C585.891 192.149 587.565 191.711 587.303 189.813C587.092 188.285 585.644 187.816 584.346 187.489C571.916 184.359 559.466 181.475 546.642 180.22C532.501 178.836 520.874 184.296 510.258 192.632C496.098 203.751 485.927 218.096 477.977 234.085C463.944 262.304 459.165 292.499 459.087 323.668C458.987 363.738 462.68 403.462 469.734 442.901C471.783 454.361 473.272 465.921 475.04 477.432C475.555 480.788 475.303 483.772 471.592 485.41C468.853 484.293 468.576 481.563 467.84 479.328C460.06 455.705 455.271 431.366 450.999 406.933C445.858 377.533 443.29 347.898 443.65 318.018C443.935 294.401 446.155 270.945 454.068 248.666C463.215 222.912 477.017 199.859 499.131 182.73C500.314 181.814 501.443 180.823 502.537 179.802C502.87 179.491 503.001 178.963 503.165 178.647C502.996 177.412 502.145 177.219 501.318 177.214C488.292 177.14 475.39 178.195 462.65 181.106C451.697 183.609 442.916 189.639 435.053 197.339C411.993 219.923 399.365 247.398 396.167 279.424C393.368 307.448 397.034 334.856 403.207 362.116C414.161 410.484 432.131 456.625 447.783 503.502C448.817 506.6 450.239 509.664 445.565 511.085C443.195 509.937 442.647 507.493 441.63 505.484C427.94 478.42 415.078 450.94 404.916 422.367C393.75 390.972 384.855 358.877 381.069 325.632C378.16 300.099 379.212 274.665 386.177 249.838C391.958 229.233 401.67 210.555 416.575 194.862C417.565 193.82 418.884 192.913 419.141 190.989C417.241 189.64 415.313 190.742 413.628 191.355C399.237 196.589 384.664 201.328 370.833 208.05C364.313 211.219 359.196 215.702 355.05 221.488C334.735 249.833 328.349 281.517 332.026 315.784C335.912 351.992 349.626 384.963 364.802 417.495C383.009 456.523 404.925 493.487 427.486 530.093C428.62 531.931 429.594 533.871 430.582 535.794C431.364 537.315 431.132 538.83 429.815 539.858C428.243 541.086 426.996 539.945 425.936 538.838C421.198 533.89 417.262 528.299 413.125 522.865C391.084 493.914 370.952 463.736 354.327 431.314C341.914 407.109 331.193 382.164 324.093 355.877C314.603 320.745 311.661 285.425 323.656 250.121C325.99 243.249 329.158 236.713 332.213 230.13C331.88 229.831 331.547 229.532 331.214 229.233C325.674 233.329 320 237.257 314.631 241.564C308.919 246.147 303.599 251.214 297.924 255.845C287.865 264.053 281.66 274.595 278.249 286.988C274.029 302.326 271.16 317.868 272.544 333.82C274.657 358.174 282.302 381.005 292.825 402.91C311.543 441.875 338.445 475.201 365.753 508.234C381.681 527.502 398.476 546.008 415.252 564.532C417.002 566.464 419.193 568.484 416.441 571.546C413.35 571.068 411.265 568.796 409.071 566.937C377.843 540.477 349.115 511.534 323.495 479.598C300.109 450.448 280.467 419.025 267.775 383.666C258.337 357.372 255.088 330.34 259.362 302.566C259.573 301.195 260.321 299.683 259.21 298.183C257.127 299.231 256.119 301.239 254.89 302.928C246.745 314.122 239.69 325.997 232.654 337.918C222.196 355.635 222.147 374.484 226.018 393.598C231.655 421.434 247.105 444.46 263.989 466.492C288.175 498.053 317.85 524.13 348.449 549.18C365.975 563.528 383.272 578.163 401.711 591.388C406.098 594.534 410.934 597.755 413.953 602.814C411.299 604.519 409.675 602.774 408.052 601.974C385.397 590.815 364.613 576.648 344.334 561.746C318.249 542.577 293.392 521.917 271.041 498.433C251.781 478.197 234.2 456.702 223.255 430.575C218.796 419.93 215.765 408.879 213.764 397.522C213.463 395.81 213.459 393.924 211.798 391.897C208.666 399.289 206.822 406.625 205.09 413.977C200.747 432.409 199.583 450.924 205.576 469.181C212.111 489.092 222.725 506.706 237.317 521.815C257.15 542.351 280.405 558.404 304.51 573.438C337.275 593.874 372.522 609.344 407.317 625.744C409.229 626.645 411.497 627.19 411.735 630.21C408.404 632.545 405.037 630.941 401.924 629.85C383.54 623.408 364.999 617.396 347.187 609.39C321.023 597.63 295.157 585.297 271.4 569.077C250.696 554.941 231.508 539.006 215.652 519.395C209.857 512.228 205.404 504.232 201.55 495.885C200.739 494.128 200.234 492.148 198.363 490.711C196.562 492.732 197.162 494.971 197.237 496.978C199.183 549.105 224.377 586.149 270.978 608.504C306.068 625.336 343.14 636.865 380.662 646.954C389.344 649.288 397.987 651.724 406.914 652.983C408.714 653.236 410.484 653.802 412.22 654.371C413.527 654.8 414.713 655.573 414.516 657.215C414.312 658.907 412.924 659.305 411.56 659.284C407.732 659.227 403.861 659.353 400.087 658.831C356.853 652.852 314.575 643.132 274.597 625.152C255.587 616.602 236.96 607.222 222.183 591.854C219.118 588.666 216.973 584.571 213.133 582.188C211.785 583.025 212.14 584.171 212.413 584.992C217.575 600.521 223.087 615.947 233.91 628.626C247.662 644.737 265.799 653.967 285.517 660.549C304.693 666.95 324.524 670.353 344.404 673.596C367.279 677.327 390.281 679.48 413.451 680.036C416.14 680.101 420.806 678.847 420.922 682.689C421.034 686.404 416.232 685.622 413.566 685.943C393.141 688.398 372.609 687.85 352.159 686.778C328.317 685.529 304.857 681.468 282.12 673.87C272.487 670.651 263.365 666.237 254.429 661.453C254.087 662.062 253.733 662.459 253.812 662.584C262.669 676.582 271.837 690.378 287.585 697.637C300.992 703.816 315.195 707.368 329.887 708.637C360.455 711.278 390.761 708.292 421.002 704.079C424.173 703.637 427.517 702.79 430.779 704.8C430.071 708.061 427.358 708.433 425.163 709.218C410 714.637 394.209 717.05 378.287 718.729C357.064 720.966 335.828 723.005 314.551 719.268C310.469 718.551 306.394 717.802 302.312 717.087C302.222 717.071 302.091 717.285 301.762 717.597C303.188 720.261 305.816 721.776 307.999 723.724C314.494 729.521 321.764 734.235 329.111 738.829C332.982 741.249 337.258 742.513 341.841 742.817C361.199 744.102 379.957 740.246 398.681 736.181C412.012 733.287 425.448 730.756 438.127 725.419C439.859 724.69 442.304 723.693 443.308 726.302C444.156 728.505 441.938 729.473 440.41 730.362C431.271 735.676 421.258 738.9 411.277 742.097C394.464 747.481 377.61 752.792 359.861 754.274C358.868 754.357 357.854 754.492 356.819 756.017C360.309 759.206 364.852 760.801 368.823 763.273C377.855 768.894 387.393 769.88 397.618 767.344C407.499 764.894 417.253 762.072 426.634 758.15C435.081 754.619 443.341 750.64 451.7 746.897C453.78 745.966 455.891 744.702 458.219 746.327C458.907 748.757 457.086 749.73 455.654 750.716C442.047 760.09 427.893 768.514 412.703 775.1C410.891 775.886 408.853 776.253 407.933 778.314C413.431 783.863 428.006 786.446 435.435 782.939C445.682 778.104 455.713 772.844 465.128 766.488C466.093 765.837 467.088 765.215 468.125 764.69C469.816 763.833 471.669 761.779 473.446 763.828C475.401 766.083 473.103 767.901 471.762 769.392C466.72 775.001 460.57 779.327 454.547 783.788C452.693 785.16 450.613 786.314 449.659 788.594C454.029 792.324 465.546 793.434 470.057 790.454C475.476 786.875 480.804 783.158 486.158 779.48C487.853 778.316 489.598 776.997 491.489 778.901C493.607 781.034 491.403 782.507 490.378 784.048C488.117 787.445 484.639 789.978 482.639 794.909C503.829 796.685 524.289 796.126 544.695 793.47C544.753 792.986 544.811 792.502 544.87 792.018C538.284 789.014 531.522 786.342 525.141 782.952C473.541 755.543 440.512 713.607 428.675 656.221C420.852 618.294 424.761 581.118 442.791 546.42C465.123 503.44 498.92 474.108 547.544 465.392C594.678 456.944 636.876 468.628 670.989 502.852C699.563 531.518 711.208 566.595 704.108 607.077C696.68 649.437 661.991 683.715 619.358 690.959C578.55 697.892 538.427 678.327 521.693 642.696C509.977 617.749 508.343 592.527 523.451 568.187C546.274 531.419 595.53 527.859 619.408 555.13C637.728 576.052 635.994 604.154 618.374 619.292C604.819 630.938 585.099 630.484 573.496 618.325C564.756 609.167 564.053 595.027 572.164 586.631C575.961 582.701 580.62 580.557 586.425 581.696C586.238 584.186 584.571 583.901 583.45 584.169C577.098 585.689 573.918 590.325 572.754 596.127C571.646 601.649 574.369 606.148 578.679 609.573C585.904 615.314 596.458 615.514 604.345 609.972C619.009 599.667 619.51 581.01 609.248 568.559C591.506 547.032 559.751 548.577 541.609 571.445C523.584 594.165 525.446 622.164 544.703 646.79C569.125 678.024 618.206 679.681 649.158 653.465C682.252 625.434 690.243 576.481 667.685 538.138C647.615 504.023 617.179 487.788 578.234 486.048C519.241 483.413 472.252 525.24 458.091 576.691C443.06 631.306 456.6 679.987 493.597 721.981C520.711 752.757 555.635 770.458 596.041 776.399C625.38 780.713 654.178 777.057 681.912 766.138C683.495 765.514 685.011 763.978 688.33 765.891C622.399 808.681 550.875 824.608 473.442 818.793Z" fill="black"/>
</svg>
