<svg width="1024" height="1024" viewBox="0 0 1024 1024" fill="none" xmlns="http://www.w3.org/2000/svg">
<rect width="1024" height="1024" rx="120" fill="white"/>
<g clip-path="url(#clip0_1_5)">
<path d="M473.1 1022.23C429.503 1017.32 387.595 1008.06 347.087 992.58C272.156 963.953 207.892 919.075 153.159 859.743C107.267 809.995 73.0097 752.906 50.09 688.712C33.8984 643.363 24.3391 596.691 21.1596 548.441C17.0324 485.809 23.9479 424.66 41.4926 364.626C67.3825 276.036 112.759 199.526 179.113 136.581C225.13 92.9281 277.179 58.4907 336.021 35.1631C386.085 15.3156 437.933 4.41773 491.459 0.989719C550.482 -2.7904 608.081 4.75201 664.678 21.92C747.351 46.9983 818.203 91.9135 878.293 154.637C954.326 234.003 998.299 329.498 1013.67 439.028C1025.04 520.008 1018.21 599.552 993.297 677.189C970.681 747.679 935.097 810.31 881.938 861.838C830.915 911.296 770.151 937.085 700.087 936.601C619.272 936.043 553.197 902.351 504.683 835.998C473.667 793.578 460.107 744.512 466.841 692.168C475.695 623.354 510.697 572.015 576.771 549.082C632.378 529.782 682.883 542.551 723.804 586.256C765.653 630.952 763.366 703.869 719.75 743.321C695.267 765.466 666.581 771.695 635.794 760.446C607.722 750.189 589.55 729.634 583.974 699.043C578.632 669.732 594.433 642.27 620.215 635.137C642.565 628.953 664.927 640.008 670.067 659.781C672.953 670.884 668.411 683.414 660.116 687.126C658.961 684.739 660.814 683.204 661.851 681.687C672.73 665.79 656.722 647.681 642.206 647.257C623.896 646.723 607.681 660.533 605.202 679.411C600.509 715.152 633.957 746.141 668.756 739.372C707.709 731.796 731.865 693.032 724.931 650.704C717.541 605.597 677.364 571.076 632.251 567.437C573.836 562.725 519.673 608.042 508.93 669.706C498.419 730.043 527.778 799.382 580.419 834.19C640.502 873.918 701.753 871.266 761.628 834.853C815.923 801.833 845.657 750.511 852.721 687.298C859.975 622.394 838.648 566.258 794.172 519.14C775.101 498.937 752.471 484.327 728.163 471.934C720.507 468.031 720.483 467.227 725.495 460.114C755.627 417.349 792.143 381.272 835.398 352.613C863.679 333.874 894.344 320.204 927.216 312.009C929.402 311.464 931.599 310.962 933.772 310.37C938.082 309.195 939.425 306.808 937.186 302.487C920.303 269.906 901.956 238.334 877.724 210.7C874.307 206.804 871.006 205.646 865.901 207.076C829.679 217.224 798.435 236.431 770.315 261.343C737.034 290.825 711.673 326.747 689.51 365.277C675.688 389.307 663.443 414.157 652.802 439.775C649.629 447.415 645.581 450.813 637.637 449.579C634.495 449.091 631.137 450.393 627.49 448.114C628.261 438.824 632.219 430.304 636.065 421.921C654.861 380.96 675.401 340.915 700.954 303.877C729.218 262.909 762.692 227.416 807.374 204.704C820.177 198.197 833.72 193.731 847.811 190.985C850.877 190.388 854.37 190.5 856.809 187.766C856.798 184.172 854.09 182.372 852.061 180.258C833.974 161.411 814.211 144.615 793.02 129.493C786.885 125.115 781.27 124.382 774.149 126.837C723.742 144.215 687.718 178.932 660.747 224.484C637.681 263.443 622.652 305.937 609.356 349.127C599.688 380.536 591.695 412.406 584.486 444.489C583.722 447.891 583.884 452.135 580.599 454.103C576.756 456.406 571.887 458.67 567.846 457.11C563.163 455.302 566.418 450.162 566.85 446.884C576.711 372.023 596.071 299.999 629.029 232.083C646.604 195.867 669.787 164.256 701.428 139.546C717.286 127.162 735.011 118.403 753.849 111.877C755.472 111.314 757.366 111.266 758.328 108.724C756.823 105.28 753.244 103.751 750.139 101.935C730.568 90.4879 709.956 81.2424 689.228 72.2542C685.797 70.7667 682.54 71.121 679.019 72.175C646.639 81.8682 621.079 101.698 599.941 127.882C571.409 163.223 555.912 204.708 546.45 248.853C534.713 303.61 530.032 359.277 526.504 415.072C525.409 432.386 524.572 449.716 523.524 467.032C523.372 469.546 523.07 472.177 522.168 474.481C521.181 477.003 518.709 478.325 516.087 478.188C513.091 478.031 512.974 475.221 512.738 473.014C508.877 436.912 507.217 400.723 509.023 364.421C511.04 323.87 515.192 283.538 523.351 243.785C534.399 189.957 550.99 138.63 590.534 98.4227C605.054 83.6591 622.244 72.8124 639.975 62.7261C641.947 61.6045 644.461 60.9329 644.067 58.0241C643.75 55.6816 641.576 54.9617 639.627 54.4608C620.963 49.6635 602.268 45.2415 583.013 43.3181C561.779 41.197 544.321 49.567 528.381 62.3454C507.119 79.3897 491.848 101.381 479.91 125.891C458.84 169.15 451.662 215.438 451.545 263.22C451.395 324.645 456.941 385.541 467.532 446C470.61 463.568 472.846 481.288 475.499 498.934C476.273 504.079 475.895 508.653 470.322 511.164C466.211 509.452 465.794 505.268 464.689 501.841C453.006 465.628 445.816 428.317 439.401 390.862C431.682 345.793 427.826 300.363 428.367 254.558C428.795 218.353 432.128 182.396 444.009 148.243C457.744 108.763 478.469 73.4236 511.674 47.1657C513.449 45.7615 515.145 44.2425 516.788 42.6777C517.288 42.201 517.484 41.3912 517.731 40.9069C517.476 39.0126 516.199 38.717 514.957 38.7098C495.398 38.5962 476.026 40.2135 456.896 44.6761C440.45 48.5129 427.264 57.7561 415.458 69.5605C380.833 104.181 361.871 146.3 357.069 195.394C352.867 238.354 358.371 280.37 367.641 322.158C384.087 396.305 411.07 467.037 434.572 538.899C436.126 543.649 438.261 548.345 431.243 550.524C427.683 548.764 426.86 545.018 425.334 541.937C404.778 500.449 385.465 458.323 370.206 414.522C353.44 366.394 340.084 317.193 334.398 266.229C330.032 227.088 331.61 188.099 342.069 150.04C350.749 118.453 365.332 89.8206 387.713 65.7637C389.198 64.1668 391.18 62.7752 391.566 59.8266C388.713 57.7577 385.818 59.4473 383.287 60.3872C361.679 68.4114 339.797 75.6752 319.029 85.9807C309.239 90.8388 301.556 97.7109 295.33 106.58C264.827 150.033 255.238 198.603 260.76 251.133C266.595 306.639 287.186 357.182 309.974 407.052C337.312 466.882 370.22 523.547 404.096 579.662C405.798 582.48 407.261 585.454 408.745 588.402C409.919 590.734 409.571 593.056 407.593 594.632C405.232 596.514 403.361 594.765 401.769 593.068C394.654 585.483 388.745 576.912 382.533 568.581C349.437 524.201 319.209 477.939 294.244 428.238C275.607 391.131 259.508 352.892 248.847 312.595C234.598 258.739 230.18 204.593 248.191 150.474C251.696 139.94 256.452 129.92 261.04 119.829C260.54 119.37 260.04 118.912 259.54 118.454C251.222 124.732 242.702 130.753 234.64 137.357C226.063 144.381 218.075 152.15 209.553 159.249C194.449 171.832 185.133 187.992 180.012 206.99C173.674 230.503 169.367 254.328 171.445 278.782C174.618 316.116 186.096 351.115 201.897 384.694C230.004 444.426 270.398 495.515 311.401 546.153C335.319 575.691 360.537 604.059 385.726 632.456C388.353 635.418 391.643 638.515 387.512 643.209C382.87 642.476 379.739 638.993 376.445 636.143C329.555 595.58 286.418 551.212 247.949 502.255C212.835 457.568 183.341 409.399 164.284 355.194C150.112 314.886 145.234 273.448 151.651 230.87C151.968 228.769 153.091 226.451 151.423 224.151C148.296 225.758 146.782 228.836 144.937 231.425C132.706 248.585 122.113 266.79 111.548 285.064C95.8456 312.224 95.7724 341.118 101.584 370.42C110.048 413.091 133.247 448.39 158.599 482.164C194.916 530.547 239.474 570.521 285.419 608.922C311.734 630.917 337.707 653.352 365.394 673.625C371.981 678.448 379.242 683.386 383.775 691.141C379.791 693.755 377.352 691.08 374.914 689.854C340.898 672.748 309.689 651.03 279.24 628.186C240.073 598.8 202.749 567.128 169.187 531.128C140.269 500.108 113.869 467.156 97.4362 427.105C90.7409 410.786 86.1892 393.845 83.1847 376.435C82.7319 373.811 82.7261 370.92 80.2317 367.812C75.5289 379.144 72.7609 390.389 70.1599 401.66C63.6395 429.916 61.8915 458.299 70.8892 486.287C80.7017 516.809 96.6391 543.81 118.55 566.972C148.33 598.454 183.248 623.062 219.443 646.109C268.641 677.436 321.566 701.152 373.811 726.292C376.683 727.673 380.087 728.509 380.445 733.138C375.443 736.718 370.388 734.259 365.713 732.586C338.109 722.71 310.27 713.495 283.524 701.222C244.237 683.195 205.399 664.288 169.727 639.424C138.639 617.754 109.828 593.325 86.0188 563.262C77.318 552.276 70.6311 540.018 64.8452 527.223C63.6266 524.528 62.8679 521.494 60.0591 519.291C57.3553 522.389 58.2564 525.821 58.369 528.898C61.2913 608.807 99.1202 665.594 169.094 699.863C221.782 725.667 277.447 743.34 333.789 758.806C346.824 762.384 359.801 766.119 373.206 768.048C375.909 768.437 378.567 769.304 381.173 770.177C383.136 770.834 384.917 772.019 384.621 774.536C384.315 777.13 382.231 777.74 380.183 777.708C374.435 777.62 368.623 777.814 362.955 777.014C298.038 767.848 234.556 752.947 174.528 725.385C145.983 712.278 118.014 697.898 95.8262 674.34C91.224 669.453 88.003 663.175 82.2371 659.521C80.2134 660.805 80.7462 662.562 81.1561 663.821C88.9072 687.627 97.1839 711.274 113.434 730.71C134.084 755.408 161.317 769.558 190.924 779.647C219.718 789.459 249.494 794.676 279.346 799.648C313.693 805.368 348.231 808.668 383.022 809.521C387.059 809.62 394.066 807.698 394.24 813.587C394.409 819.282 387.198 818.084 383.194 818.575C352.526 822.338 321.696 821.499 290.99 819.856C255.19 817.941 219.964 811.715 185.824 800.068C171.359 795.134 157.662 788.367 144.244 781.034C143.731 781.966 143.2 782.576 143.318 782.766C156.617 804.225 170.383 825.374 194.03 836.501C214.161 845.974 235.487 851.419 257.548 853.365C303.446 857.414 348.952 852.835 394.36 846.377C399.121 845.7 404.143 844.401 409.04 847.483C407.977 852.482 403.904 853.052 400.607 854.255C377.84 862.562 354.129 866.261 330.222 868.835C298.355 872.265 266.468 875.391 234.519 869.662C228.391 868.563 222.271 867.415 216.143 866.318C216.007 866.294 215.81 866.621 215.316 867.1C217.458 871.184 221.404 873.506 224.682 876.493C234.434 885.379 245.35 892.606 256.383 899.648C262.195 903.358 268.615 905.295 275.497 905.761C304.563 907.731 332.729 901.82 360.844 895.589C380.861 891.152 401.035 887.272 420.073 879.091C422.674 877.974 426.346 876.444 427.854 880.445C429.126 883.822 425.796 885.306 423.501 886.668C409.779 894.815 394.745 899.758 379.758 904.657C354.513 912.911 329.205 921.053 302.555 923.325C301.064 923.452 299.541 923.659 297.987 925.996C303.227 930.885 310.049 933.331 316.011 937.119C329.572 945.737 343.895 947.248 359.248 943.361C374.084 939.605 388.731 935.28 402.817 929.267C415.5 923.853 427.902 917.754 440.454 912.016C443.577 910.589 446.747 908.651 450.243 911.142C451.276 914.867 448.541 916.359 446.392 917.871C425.96 932.24 404.707 945.154 381.899 955.251C379.178 956.456 376.118 957.018 374.737 960.178C382.992 968.684 404.876 972.643 416.031 967.268C431.417 959.855 446.479 951.792 460.616 942.049C462.065 941.05 463.56 940.096 465.117 939.291C467.656 937.979 470.439 934.83 473.106 937.971C476.041 941.428 472.591 944.214 470.578 946.501C463.007 955.098 453.773 961.731 444.728 968.569C441.946 970.673 438.821 972.441 437.39 975.936C443.951 981.655 461.244 983.356 468.018 978.788C476.155 973.301 484.155 967.603 492.194 961.965C494.739 960.18 497.36 958.158 500.199 961.078C503.379 964.347 500.07 966.606 498.53 968.967C495.135 974.174 489.913 978.057 486.91 985.617C518.728 988.34 549.449 987.483 580.089 983.41C580.177 982.669 580.264 981.927 580.352 981.186C570.463 976.58 560.31 972.484 550.728 967.288C473.249 925.27 423.655 860.983 405.881 773.012C394.135 714.872 400.005 657.883 427.076 604.691C460.609 538.804 511.357 493.838 584.367 480.478C655.141 467.528 718.502 485.438 769.724 537.902C812.629 581.847 830.114 635.618 819.454 697.676C808.3 762.612 756.213 815.16 692.199 826.264C630.924 836.893 570.678 806.9 545.552 752.28C527.959 714.037 525.505 675.371 548.191 638.059C582.461 581.694 656.42 576.238 692.274 618.042C719.782 650.116 717.178 693.195 690.721 716.401C670.367 734.254 640.758 733.559 623.335 714.918C610.212 700.88 609.156 679.203 621.335 666.334C627.036 660.309 634.033 657.022 642.749 658.768C642.468 662.585 639.965 662.148 638.281 662.559C628.743 664.889 623.968 671.996 622.221 680.89C620.557 689.355 624.646 696.252 631.118 701.503C641.967 710.304 657.814 710.61 669.657 702.114C691.675 686.317 692.427 657.716 677.018 638.629C650.378 605.63 602.697 607.998 575.456 643.054C548.391 677.883 551.187 720.804 580.101 758.556C616.773 806.436 690.47 808.976 736.944 768.787C786.637 725.816 798.636 650.774 764.764 591.995C734.628 539.697 688.926 514.81 630.45 512.143C541.869 508.103 471.313 572.223 450.051 651.095C427.481 734.818 447.811 809.445 503.365 873.821C544.077 920.999 596.517 948.135 657.188 957.242C701.24 963.855 744.482 958.251 786.126 941.512C788.503 940.556 790.78 938.2 795.762 941.133C696.764 1006.73 589.369 1031.14 473.1 1022.23Z" fill="black"/>
</g>
<defs>
<clipPath id="clip0_1_5">
<rect x="13" y="0.0351562" width="1011" height="1023.96" rx="120" fill="white"/>
</clipPath>
</defs>
</svg>
