<svg width="4000" height="4000" viewBox="0 0 4000 4000" fill="none" xmlns="http://www.w3.org/2000/svg">
<rect width="4000" height="4000" rx="500" fill="black"/>
<mask id="path-2-inside-1_1_16" fill="white">
<path d="M1881.28 3279.56C1769.74 3267.25 1662.51 3244.03 1558.87 3205.23C1367.16 3133.47 1202.73 3020.96 1062.69 2872.22C945.278 2747.51 857.628 2604.39 798.987 2443.46C757.56 2329.77 733.102 2212.77 724.967 2091.81C714.407 1934.8 732.101 1781.5 776.99 1631C843.231 1408.91 959.33 1217.11 1129.1 1059.31C1246.84 949.875 1380.01 863.544 1530.56 805.063C1658.65 755.307 1791.31 727.987 1928.26 719.393C2079.27 709.917 2226.64 728.825 2371.45 771.864C2582.97 834.733 2764.25 947.332 2917.99 1104.58C3112.53 1303.54 3225.03 1542.94 3264.37 1817.52C3293.45 2020.53 3275.97 2219.94 3212.24 2414.57C3154.37 2591.28 3063.33 2748.3 2927.32 2877.47C2796.77 3001.46 2641.31 3066.11 2462.04 3064.9C2255.27 3063.5 2086.22 2979.03 1962.09 2812.69C1882.73 2706.35 1848.04 2583.34 1865.27 2452.12C1887.92 2279.61 1977.48 2150.91 2146.53 2093.42C2288.8 2045.03 2418.02 2077.04 2522.72 2186.61C2629.8 2298.66 2623.95 2481.46 2512.35 2580.36C2449.71 2635.88 2376.31 2651.49 2297.54 2623.29C2225.72 2597.58 2179.23 2546.05 2164.96 2469.36C2151.29 2395.88 2191.72 2327.03 2257.68 2309.15C2314.87 2293.65 2372.08 2321.36 2385.23 2370.93C2391.01 2392.72 2385.15 2416.7 2372.15 2430.55C2366.27 2436.82 2359.29 2432.9 2364.21 2425.85C2392.05 2386 2351.09 2340.6 2313.95 2339.54C2267.1 2338.2 2225.62 2372.82 2219.27 2420.14C2207.27 2509.74 2292.85 2587.43 2381.88 2570.46C2481.54 2551.47 2543.35 2454.29 2525.61 2348.18C2506.7 2235.1 2403.9 2148.55 2288.48 2139.43C2139.02 2127.62 2000.44 2241.22 1972.96 2395.81C1946.06 2547.07 2021.18 2720.9 2155.86 2808.16C2309.59 2907.76 2466.3 2901.11 2619.5 2809.82C2758.42 2727.04 2834.49 2598.38 2852.57 2439.92C2871.13 2277.21 2816.56 2136.48 2702.76 2018.36C2653.97 1967.71 2596.07 1931.08 2533.88 1900.01C2514.29 1890.23 2514.23 1888.21 2527.05 1870.38C2604.15 1763.17 2697.57 1672.73 2808.24 1600.88C2880.6 1553.91 2959.06 1519.64 3043.16 1499.1C3048.76 1497.73 3054.38 1496.47 3059.94 1494.98C3070.97 1492.04 3074.4 1486.06 3068.67 1475.22C3025.48 1393.54 2978.54 1314.4 2916.54 1245.12C2907.79 1235.35 2899.35 1232.45 2886.29 1236.04C2793.61 1261.47 2713.67 1309.63 2641.72 1372.08C2556.57 1445.99 2491.69 1536.04 2434.98 1632.63C2399.62 1692.87 2368.29 1755.17 2341.06 1819.39C2332.94 1838.55 2322.59 1847.06 2302.26 1843.97C2286.13 1841.52 2276.76 1829.84 2281.68 1814.29C2285.99 1800.69 2292.17 1787.6 2298.24 1774.64C2346.33 1671.95 2398.88 1571.56 2464.26 1478.71C2536.57 1376.01 2622.22 1287.03 2736.54 1230.09C2769.3 1213.78 2803.95 1202.58 2840 1195.7C2840.59 1195.59 2841.18 1195.48 2841.77 1195.39C2856.48 1193.03 2861.3 1179.44 2850.88 1168.8C2804.6 1121.56 2754.03 1079.45 2699.82 1041.54C2684.12 1030.57 2669.75 1028.73 2651.54 1034.88C2522.57 1078.45 2430.39 1165.48 2361.39 1279.68C2302.37 1377.34 2263.92 1483.87 2229.9 1592.15C2205.17 1670.89 2184.71 1750.78 2166.27 1831.21C2164.31 1839.74 2164.73 1850.38 2156.33 1855.31C2146.49 1861.09 2134.04 1866.76 2123.7 1862.85C2111.71 1858.32 2120.04 1845.43 2121.15 1837.21C2146.38 1649.54 2195.91 1468.99 2280.24 1298.73C2325.2 1207.94 2384.52 1128.69 2465.47 1066.74C2506.05 1035.7 2551.4 1013.74 2599.6 997.378C2608.47 994.367 2609.09 984.032 2601.27 978.865C2597.72 976.517 2593.78 974.563 2590.1 972.455C2540.03 943.758 2487.29 920.58 2434.26 898.047C2425.48 894.318 2417.15 895.207 2408.14 897.849C2325.29 922.149 2259.89 971.861 2205.81 1037.5C2132.81 1126.1 2093.16 1230.1 2068.95 1340.77C2038.92 1478.04 2026.95 1617.59 2017.92 1757.47C2015.12 1800.87 2012.98 1844.31 2010.3 1887.73C2009.91 1894.03 2009.13 1900.62 2006.83 1906.4C2004.3 1912.72 1997.97 1916.04 1991.27 1915.69C1983.6 1915.3 1983.3 1908.25 1982.7 1902.72C1972.82 1812.22 1968.57 1721.49 1973.19 1630.49C1978.36 1528.83 1988.98 1427.72 2009.85 1328.06C2038.12 1193.12 2080.57 1064.45 2181.74 963.65C2218.9 926.639 2262.88 899.447 2308.24 874.161C2313.29 871.35 2319.72 869.666 2318.71 862.374C2317.9 856.501 2312.34 854.697 2307.35 853.441C2259.6 841.414 2211.77 830.329 2162.5 825.507C2108.17 820.189 2063.51 841.172 2022.72 873.207C1968.32 915.936 1929.25 971.065 1898.71 1032.51C1844.8 1140.96 1826.43 1257 1826.13 1376.78C1825.75 1530.77 1839.94 1683.43 1867.04 1835C1874.91 1879.04 1880.63 1923.46 1887.42 1967.7C1887.84 1970.43 1888.13 1973.09 1888.18 1975.66C1888.59 1993.95 1865.48 1992.37 1859.76 1974.99C1829.87 1884.21 1811.47 1790.67 1795.06 1696.77C1775.31 1583.79 1765.45 1469.9 1766.83 1355.07C1767.93 1264.31 1776.45 1174.17 1806.85 1088.55C1841.99 989.573 1895.02 900.979 1979.98 835.153C1984.52 831.632 1988.86 827.824 1993.06 823.901C1995.48 821.642 1995.86 816.995 1993.14 815.108C1991.8 814.181 1990.08 813.964 1988.38 813.954C1938.33 813.67 1888.77 817.724 1839.82 828.911C1797.74 838.53 1764.01 861.702 1733.8 891.294C1645.21 978.085 1596.7 1083.67 1584.41 1206.75C1573.66 1314.45 1587.74 1419.78 1611.46 1524.54C1653.54 1710.42 1722.58 1887.74 1782.71 2067.89C1783.7 2070.87 1784.79 2073.84 1785.58 2076.71C1790.19 2093.41 1766.89 2090.96 1759.07 2075.51C1706.48 1971.5 1657.06 1865.89 1618.02 1756.09C1575.12 1635.43 1540.95 1512.09 1526.41 1384.33C1515.23 1286.2 1519.27 1188.46 1546.03 1093.05C1568.24 1013.86 1605.55 942.085 1662.81 881.776C1670.55 873.63 1665.74 862.727 1655.28 866.826C1653.99 867.333 1652.72 867.849 1651.49 868.298C1596.21 888.414 1540.22 906.624 1487.08 932.459C1462.04 944.638 1442.38 961.865 1426.45 984.1C1348.4 1093.03 1323.87 1214.79 1338 1346.48C1352.93 1485.63 1405.61 1612.34 1463.91 1737.36C1533.86 1887.35 1618.06 2029.4 1704.73 2170.08C1709.09 2177.14 1712.83 2184.6 1716.63 2191.99C1719.63 2197.83 1718.74 2203.66 1713.68 2207.61C1707.64 2212.33 1702.85 2207.94 1698.78 2203.69C1680.57 2184.67 1665.46 2163.18 1649.56 2142.3C1564.88 2031.04 1487.54 1915.07 1423.67 1790.47C1375.98 1697.45 1334.8 1601.58 1307.52 1500.56C1271.06 1365.55 1259.76 1229.81 1305.84 1094.14C1314.55 1068.5 1326.27 1044.09 1337.68 1019.54C1338.3 1018.22 1337.97 1016.65 1336.89 1015.67C1335.72 1014.62 1333.97 1014.54 1332.7 1015.47C1312.11 1030.63 1291.09 1045.26 1271.17 1061.25C1249.23 1078.86 1228.79 1098.34 1206.98 1116.14C1168.34 1147.68 1144.5 1188.19 1131.4 1235.82C1115.18 1294.76 1104.16 1354.49 1109.48 1415.8C1117.6 1509.39 1146.97 1597.13 1187.39 1681.31C1259.31 1831.05 1362.66 1959.13 1467.57 2086.08C1528.76 2160.12 1593.28 2231.24 1657.73 2302.43C1670.88 2316.96 1650.63 2326.2 1635.87 2313.3C1635.24 2312.75 1634.62 2312.21 1633.98 2311.67C1514.01 2209.98 1403.65 2098.76 1305.22 1976.03C1215.38 1864 1139.92 1743.24 1091.16 1607.35C1054.9 1506.31 1042.42 1402.42 1058.84 1295.69C1060.38 1285.69 1051.61 1282.61 1045.88 1290.94C1044.46 1293.01 1043.1 1295.1 1041.66 1297.08C1010.36 1340.1 983.262 1385.73 956.231 1431.54C916.056 1499.63 915.868 1572.07 930.738 1645.53C952.392 1752.5 1011.75 1840.99 1076.61 1925.66C1169.53 2046.95 1283.54 2147.16 1401.09 2243.43C1468.42 2298.57 1534.87 2354.81 1605.71 2405.64C1616.29 2413.22 1627.54 2420.92 1637.32 2430.41C1647.19 2439.98 1642.4 2452.4 1630.07 2446.32C1543.04 2403.44 1463.19 2348.99 1385.28 2291.72C1285.07 2218.06 1189.57 2138.66 1103.7 2048.41C1029.71 1970.64 962.17 1888.03 920.125 1787.63C902.995 1746.72 891.349 1704.25 883.662 1660.61C881.828 1650.19 871.242 1650.72 867.785 1660.71C860.486 1681.79 855.293 1702.8 850.337 1723.84C833.654 1794.68 829.182 1865.83 852.203 1935.99C877.309 2012.51 918.086 2080.2 974.146 2138.27C1050.34 2217.19 1139.68 2278.88 1232.29 2336.66C1358.16 2415.19 1493.57 2474.65 1627.25 2537.67C1641.72 2544.49 1634.94 2562.13 1619.52 2557.88C1615.1 2556.66 1610.75 2554.93 1606.53 2553.45C1535.9 2528.69 1464.67 2505.59 1396.24 2474.82C1295.72 2429.63 1196.36 2382.23 1105.09 2319.9C1025.54 2265.57 951.83 2204.33 890.913 2128.97C868.651 2101.42 851.543 2070.7 836.739 2038.62C831.15 2026.51 819.204 2027.86 820.082 2041.17C820.119 2041.72 820.149 2042.27 820.169 2042.82C827.646 2243.14 924.434 2385.5 1103.46 2471.41C1238.27 2536.1 1380.69 2580.41 1524.85 2619.18C1558.2 2628.15 1591.4 2637.51 1625.7 2642.35C1632.61 2643.32 1639.42 2645.5 1646.08 2647.69C1651.1 2649.33 1655.66 2652.3 1654.9 2658.61C1654.12 2665.12 1648.79 2666.65 1643.55 2666.57C1628.84 2666.34 1613.97 2666.83 1599.47 2664.83C1433.38 2641.85 1270.95 2604.49 1117.37 2535.39C1044.34 2502.54 972.776 2466.49 916.006 2407.43C907.063 2398.13 900.158 2386.81 890.891 2377.89C885.457 2372.66 876.093 2373.9 878.471 2381.06C898.303 2440.74 919.48 2500.02 961.057 2548.74C1013.89 2610.66 1083.57 2646.13 1159.32 2671.43C1232.99 2696.02 1309.17 2709.1 1385.55 2721.57C1473.43 2735.91 1561.8 2744.18 1650.81 2746.32C1661.14 2746.56 1679.07 2741.75 1679.51 2756.51C1679.95 2770.79 1661.5 2767.78 1651.25 2769.02C1572.79 2778.45 1493.91 2776.35 1415.34 2772.23C1323.75 2767.42 1233.62 2751.82 1146.27 2722.62C1110.85 2710.78 1077.23 2694.74 1044.31 2677.26C1041.85 2675.96 1036.03 2676.89 1037.52 2679.25C1071.54 2733.04 1106.76 2786.06 1167.26 2813.96C1218.77 2837.7 1273.34 2851.35 1329.78 2856.23C1447.21 2866.38 1563.64 2854.9 1679.82 2838.71C1682.89 2838.28 1686 2837.76 1689.14 2837.33C1706.47 2834.99 1712.27 2852.58 1695.81 2858.46C1637.55 2879.29 1576.89 2888.56 1515.72 2895.01C1434.19 2903.61 1352.6 2911.45 1270.86 2897.09C1255.18 2894.33 1239.52 2891.45 1223.84 2888.7C1222.14 2888.41 1222.28 2891.73 1223.22 2893.17C1228.91 2901.9 1238.01 2907.36 1245.69 2914.21C1270.64 2936.49 1298.57 2954.6 1326.8 2972.26C1341.67 2981.56 1358.1 2986.42 1375.7 2987.58C1450.07 2992.52 1522.14 2977.7 1594.07 2962.08C1645.28 2950.96 1696.9 2941.23 1745.61 2920.73C1752.26 2917.92 1761.66 2914.09 1765.52 2924.12C1768.77 2932.58 1760.25 2936.3 1754.38 2939.72C1719.27 2960.14 1680.81 2972.53 1642.46 2984.82C1577.87 3005.51 1513.12 3025.92 1444.93 3031.62C1436.88 3032.29 1437.64 3042.44 1444.44 3046.81C1455.6 3053.99 1468.08 3059.17 1479.36 3066.2C1514.06 3087.8 1550.7 3091.59 1589.99 3081.84C1627.94 3072.43 1665.42 3061.58 1701.46 3046.51C1733.91 3032.94 1765.64 3017.65 1797.76 3003.27C1799.34 3002.55 1800.93 3001.79 1802.54 3001.08C1815.17 2995.44 1824.34 3010.09 1812.95 3017.94C1760.67 3053.96 1706.29 3086.34 1647.94 3111.65C1635.34 3117.12 1636.03 3130.78 1648.49 3136.54C1674.58 3148.61 1713.16 3152.21 1735.27 3141.78C1774.63 3123.19 1813.17 3102.98 1849.34 3078.55C1853.05 3076.05 1856.87 3073.66 1860.86 3071.64C1867.35 3068.35 1874.47 3060.46 1881.3 3068.33C1888.81 3077 1879.98 3083.98 1874.83 3089.72C1855.46 3111.27 1831.83 3127.9 1808.69 3145.04C1795.9 3154.52 1798.6 3170.65 1814.09 3174.34C1833.41 3178.93 1856.78 3178.26 1868.28 3170.66C1889.1 3156.9 1909.57 3142.62 1930.14 3128.48C1936.65 3124.01 1943.35 3118.94 1950.62 3126.26C1958.75 3134.46 1950.29 3140.12 1946.35 3146.04C1932.19 3167.31 1942.47 3189.94 1968 3190.91C2030.34 3193.29 2091.31 3190.38 2152.15 3182.62C2153.84 3182.4 2155.16 3181.06 2155.37 3179.37C2155.56 3177.76 2154.69 3176.21 2153.21 3175.54C2128.7 3164.45 2103.61 3154.43 2079.9 3141.83C1881.66 3036.49 1754.77 2875.33 1709.3 2654.79C1679.25 2509.04 1694.26 2366.17 1763.53 2232.83C1849.32 2067.65 1979.17 1954.93 2165.97 1921.43C2347.04 1888.97 2509.16 1933.87 2640.21 2065.39C2749.99 2175.56 2794.73 2310.36 2767.45 2465.93C2738.91 2628.72 2605.64 2760.46 2441.86 2788.29C2285.08 2814.94 2130.94 2739.75 2066.65 2602.82C2021.64 2506.95 2015.37 2410.02 2073.41 2316.48C2161.09 2175.17 2350.32 2161.49 2442.05 2266.3C2512.43 2346.7 2505.77 2454.7 2438.08 2512.87C2386 2557.63 2310.25 2555.89 2265.67 2509.16C2232.09 2473.96 2229.39 2419.62 2260.55 2387.36C2271.29 2376.23 2283.84 2368.83 2298.61 2367.45C2308.16 2366.56 2313.23 2375.66 2303.91 2377.9C2279.5 2383.74 2267.29 2401.55 2262.82 2423.85C2258.56 2445.07 2269.02 2462.36 2285.58 2475.52C2313.34 2497.59 2353.88 2498.36 2384.18 2477.06C2440.52 2437.46 2442.44 2365.75 2403.02 2317.91C2334.86 2235.18 2212.87 2241.12 2143.17 2329C2073.92 2416.31 2081.07 2523.91 2155.05 2618.55C2248.88 2738.58 2437.44 2744.95 2556.34 2644.2C2683.48 2536.48 2714.18 2348.35 2627.52 2201C2550.42 2069.89 2433.49 2007.5 2283.87 2000.82C2057.23 1990.69 1876.71 2151.43 1822.31 2349.16C1764.56 2559.04 1816.58 2746.13 1958.72 2907.51C2062.88 3025.78 2197.05 3093.81 2352.28 3116.64C2464.99 3133.22 2575.63 3119.17 2682.18 3077.21C2693.34 3072.81 2694.88 3083.99 2684.7 3090.33C2437.55 3244.19 2170.12 3301.26 1881.28 3279.56Z"/>
</mask>
<path d="M1881.28 3279.56C1769.74 3267.25 1662.51 3244.03 1558.87 3205.23C1367.16 3133.47 1202.73 3020.96 1062.69 2872.22C945.278 2747.51 857.628 2604.39 798.987 2443.46C757.56 2329.77 733.102 2212.77 724.967 2091.81C714.407 1934.8 732.101 1781.5 776.99 1631C843.231 1408.91 959.33 1217.11 1129.1 1059.31C1246.84 949.875 1380.01 863.544 1530.56 805.063C1658.65 755.307 1791.31 727.987 1928.26 719.393C2079.27 709.917 2226.64 728.825 2371.45 771.864C2582.97 834.733 2764.25 947.332 2917.99 1104.58C3112.53 1303.54 3225.03 1542.94 3264.37 1817.52C3293.45 2020.53 3275.97 2219.94 3212.24 2414.57C3154.37 2591.28 3063.33 2748.3 2927.32 2877.47C2796.77 3001.46 2641.31 3066.11 2462.04 3064.9C2255.27 3063.5 2086.22 2979.03 1962.09 2812.69C1882.73 2706.35 1848.04 2583.34 1865.27 2452.12C1887.92 2279.61 1977.48 2150.91 2146.53 2093.42C2288.8 2045.03 2418.02 2077.04 2522.72 2186.61C2629.8 2298.66 2623.95 2481.46 2512.35 2580.36C2449.71 2635.88 2376.31 2651.49 2297.54 2623.29C2225.72 2597.58 2179.23 2546.05 2164.96 2469.36C2151.29 2395.88 2191.72 2327.03 2257.68 2309.15C2314.87 2293.65 2372.08 2321.36 2385.23 2370.93C2391.01 2392.72 2385.15 2416.7 2372.15 2430.55C2366.27 2436.82 2359.29 2432.9 2364.21 2425.85C2392.05 2386 2351.09 2340.6 2313.95 2339.54C2267.1 2338.2 2225.62 2372.82 2219.27 2420.14C2207.27 2509.74 2292.85 2587.43 2381.88 2570.46C2481.54 2551.47 2543.35 2454.29 2525.61 2348.18C2506.7 2235.1 2403.9 2148.55 2288.48 2139.43C2139.02 2127.62 2000.44 2241.22 1972.96 2395.81C1946.06 2547.07 2021.18 2720.9 2155.86 2808.16C2309.59 2907.76 2466.3 2901.11 2619.5 2809.82C2758.42 2727.04 2834.49 2598.38 2852.57 2439.92C2871.13 2277.21 2816.56 2136.48 2702.76 2018.36C2653.97 1967.71 2596.07 1931.08 2533.88 1900.01C2514.29 1890.23 2514.23 1888.21 2527.05 1870.38C2604.15 1763.17 2697.57 1672.73 2808.24 1600.88C2880.6 1553.91 2959.06 1519.64 3043.16 1499.1C3048.76 1497.73 3054.38 1496.47 3059.94 1494.98C3070.97 1492.04 3074.4 1486.06 3068.67 1475.22C3025.48 1393.54 2978.54 1314.4 2916.54 1245.12C2907.79 1235.35 2899.35 1232.45 2886.29 1236.04C2793.61 1261.47 2713.67 1309.63 2641.72 1372.08C2556.57 1445.99 2491.69 1536.04 2434.98 1632.63C2399.62 1692.87 2368.29 1755.17 2341.06 1819.39C2332.94 1838.55 2322.59 1847.06 2302.26 1843.97C2286.13 1841.52 2276.76 1829.84 2281.68 1814.29C2285.99 1800.69 2292.17 1787.6 2298.24 1774.64C2346.33 1671.95 2398.88 1571.56 2464.26 1478.71C2536.57 1376.01 2622.22 1287.03 2736.54 1230.09C2769.3 1213.78 2803.95 1202.58 2840 1195.7C2840.59 1195.59 2841.18 1195.48 2841.77 1195.39C2856.48 1193.03 2861.3 1179.44 2850.88 1168.8C2804.6 1121.56 2754.03 1079.45 2699.82 1041.54C2684.12 1030.57 2669.75 1028.73 2651.54 1034.88C2522.57 1078.45 2430.39 1165.48 2361.39 1279.68C2302.37 1377.34 2263.92 1483.87 2229.9 1592.15C2205.17 1670.89 2184.71 1750.78 2166.27 1831.21C2164.31 1839.74 2164.73 1850.38 2156.33 1855.31C2146.49 1861.09 2134.04 1866.76 2123.7 1862.85C2111.71 1858.32 2120.04 1845.43 2121.15 1837.21C2146.38 1649.54 2195.91 1468.99 2280.24 1298.73C2325.2 1207.94 2384.52 1128.69 2465.47 1066.74C2506.05 1035.7 2551.4 1013.74 2599.6 997.378C2608.47 994.367 2609.09 984.032 2601.27 978.865C2597.72 976.517 2593.78 974.563 2590.1 972.455C2540.03 943.758 2487.29 920.58 2434.26 898.047C2425.48 894.318 2417.15 895.207 2408.14 897.849C2325.29 922.149 2259.89 971.861 2205.81 1037.5C2132.81 1126.1 2093.16 1230.1 2068.95 1340.77C2038.92 1478.04 2026.95 1617.59 2017.92 1757.47C2015.12 1800.87 2012.98 1844.31 2010.3 1887.73C2009.91 1894.03 2009.13 1900.62 2006.83 1906.4C2004.3 1912.72 1997.97 1916.04 1991.27 1915.69C1983.6 1915.3 1983.3 1908.25 1982.7 1902.72C1972.82 1812.22 1968.57 1721.49 1973.19 1630.49C1978.36 1528.83 1988.98 1427.72 2009.85 1328.06C2038.12 1193.12 2080.57 1064.45 2181.74 963.65C2218.9 926.639 2262.88 899.447 2308.24 874.161C2313.29 871.35 2319.72 869.666 2318.71 862.374C2317.9 856.501 2312.34 854.697 2307.35 853.441C2259.6 841.414 2211.77 830.329 2162.5 825.507C2108.17 820.189 2063.51 841.172 2022.72 873.207C1968.32 915.936 1929.25 971.065 1898.71 1032.51C1844.8 1140.96 1826.43 1257 1826.13 1376.78C1825.75 1530.77 1839.94 1683.43 1867.04 1835C1874.91 1879.04 1880.63 1923.46 1887.42 1967.7C1887.84 1970.43 1888.13 1973.09 1888.18 1975.66C1888.59 1993.95 1865.48 1992.37 1859.76 1974.99C1829.87 1884.21 1811.47 1790.67 1795.06 1696.77C1775.31 1583.79 1765.45 1469.9 1766.83 1355.07C1767.93 1264.31 1776.45 1174.17 1806.85 1088.55C1841.99 989.573 1895.02 900.979 1979.98 835.153C1984.52 831.632 1988.86 827.824 1993.06 823.901C1995.48 821.642 1995.86 816.995 1993.14 815.108C1991.8 814.181 1990.08 813.964 1988.38 813.954C1938.33 813.67 1888.77 817.724 1839.82 828.911C1797.74 838.53 1764.01 861.702 1733.8 891.294C1645.21 978.085 1596.7 1083.67 1584.41 1206.75C1573.66 1314.45 1587.74 1419.78 1611.46 1524.54C1653.54 1710.42 1722.58 1887.74 1782.71 2067.89C1783.7 2070.87 1784.79 2073.84 1785.58 2076.71C1790.19 2093.41 1766.89 2090.96 1759.07 2075.51C1706.48 1971.5 1657.06 1865.89 1618.02 1756.09C1575.12 1635.43 1540.95 1512.09 1526.41 1384.33C1515.23 1286.2 1519.27 1188.46 1546.03 1093.05C1568.24 1013.86 1605.55 942.085 1662.81 881.776C1670.55 873.63 1665.74 862.727 1655.28 866.826C1653.99 867.333 1652.72 867.849 1651.49 868.298C1596.21 888.414 1540.22 906.624 1487.08 932.459C1462.04 944.638 1442.38 961.865 1426.45 984.1C1348.4 1093.03 1323.87 1214.79 1338 1346.48C1352.93 1485.63 1405.61 1612.34 1463.91 1737.36C1533.86 1887.35 1618.06 2029.4 1704.73 2170.08C1709.09 2177.14 1712.83 2184.6 1716.63 2191.99C1719.63 2197.83 1718.74 2203.66 1713.68 2207.61C1707.64 2212.33 1702.85 2207.94 1698.78 2203.69C1680.57 2184.67 1665.46 2163.18 1649.56 2142.3C1564.88 2031.04 1487.54 1915.07 1423.67 1790.47C1375.98 1697.45 1334.8 1601.58 1307.52 1500.56C1271.06 1365.55 1259.76 1229.81 1305.84 1094.14C1314.55 1068.5 1326.27 1044.09 1337.68 1019.54C1338.3 1018.22 1337.97 1016.65 1336.89 1015.67C1335.72 1014.62 1333.97 1014.54 1332.7 1015.47C1312.11 1030.63 1291.09 1045.26 1271.17 1061.25C1249.23 1078.86 1228.79 1098.34 1206.98 1116.14C1168.34 1147.68 1144.5 1188.19 1131.4 1235.82C1115.18 1294.76 1104.16 1354.49 1109.48 1415.8C1117.6 1509.39 1146.97 1597.13 1187.39 1681.31C1259.31 1831.05 1362.66 1959.13 1467.57 2086.08C1528.76 2160.12 1593.28 2231.24 1657.73 2302.43C1670.88 2316.96 1650.63 2326.2 1635.87 2313.3C1635.24 2312.75 1634.62 2312.21 1633.98 2311.67C1514.01 2209.98 1403.65 2098.76 1305.22 1976.03C1215.38 1864 1139.92 1743.24 1091.16 1607.35C1054.9 1506.31 1042.42 1402.42 1058.84 1295.69C1060.38 1285.69 1051.61 1282.61 1045.88 1290.94C1044.46 1293.01 1043.1 1295.1 1041.66 1297.08C1010.36 1340.1 983.262 1385.73 956.231 1431.54C916.056 1499.63 915.868 1572.07 930.738 1645.53C952.392 1752.5 1011.75 1840.99 1076.61 1925.66C1169.53 2046.95 1283.54 2147.16 1401.09 2243.43C1468.42 2298.57 1534.87 2354.81 1605.71 2405.64C1616.29 2413.22 1627.54 2420.92 1637.32 2430.41C1647.19 2439.98 1642.4 2452.4 1630.07 2446.32C1543.04 2403.44 1463.19 2348.99 1385.28 2291.72C1285.07 2218.06 1189.57 2138.66 1103.7 2048.41C1029.71 1970.64 962.17 1888.03 920.125 1787.63C902.995 1746.72 891.349 1704.25 883.662 1660.61C881.828 1650.19 871.242 1650.72 867.785 1660.71C860.486 1681.79 855.293 1702.8 850.337 1723.84C833.654 1794.68 829.182 1865.83 852.203 1935.99C877.309 2012.51 918.086 2080.2 974.146 2138.27C1050.34 2217.19 1139.68 2278.88 1232.29 2336.66C1358.16 2415.19 1493.57 2474.65 1627.25 2537.67C1641.72 2544.49 1634.94 2562.13 1619.52 2557.88C1615.1 2556.66 1610.75 2554.93 1606.53 2553.45C1535.9 2528.69 1464.67 2505.59 1396.24 2474.82C1295.72 2429.63 1196.36 2382.23 1105.09 2319.9C1025.54 2265.57 951.83 2204.33 890.913 2128.97C868.651 2101.42 851.543 2070.7 836.739 2038.62C831.15 2026.51 819.204 2027.86 820.082 2041.17C820.119 2041.72 820.149 2042.27 820.169 2042.82C827.646 2243.14 924.434 2385.5 1103.46 2471.41C1238.27 2536.1 1380.69 2580.41 1524.85 2619.18C1558.2 2628.15 1591.4 2637.51 1625.7 2642.35C1632.61 2643.32 1639.42 2645.5 1646.08 2647.69C1651.1 2649.33 1655.66 2652.3 1654.9 2658.61C1654.12 2665.12 1648.79 2666.65 1643.55 2666.57C1628.84 2666.34 1613.97 2666.83 1599.47 2664.83C1433.38 2641.85 1270.95 2604.49 1117.37 2535.39C1044.34 2502.54 972.776 2466.49 916.006 2407.43C907.063 2398.13 900.158 2386.81 890.891 2377.89C885.457 2372.66 876.093 2373.9 878.471 2381.06C898.303 2440.74 919.48 2500.02 961.057 2548.74C1013.89 2610.66 1083.57 2646.13 1159.32 2671.43C1232.99 2696.02 1309.17 2709.1 1385.55 2721.57C1473.43 2735.91 1561.8 2744.18 1650.81 2746.32C1661.14 2746.56 1679.07 2741.75 1679.51 2756.51C1679.95 2770.79 1661.5 2767.78 1651.25 2769.02C1572.79 2778.45 1493.91 2776.35 1415.34 2772.23C1323.75 2767.42 1233.62 2751.82 1146.27 2722.62C1110.85 2710.78 1077.23 2694.74 1044.31 2677.26C1041.85 2675.96 1036.03 2676.89 1037.52 2679.25C1071.54 2733.04 1106.76 2786.06 1167.26 2813.96C1218.77 2837.7 1273.34 2851.35 1329.78 2856.23C1447.21 2866.38 1563.64 2854.9 1679.82 2838.71C1682.89 2838.28 1686 2837.76 1689.14 2837.33C1706.47 2834.99 1712.27 2852.58 1695.81 2858.46C1637.55 2879.29 1576.89 2888.56 1515.72 2895.01C1434.19 2903.61 1352.6 2911.45 1270.86 2897.09C1255.18 2894.33 1239.52 2891.45 1223.84 2888.7C1222.14 2888.41 1222.28 2891.73 1223.22 2893.17C1228.91 2901.9 1238.01 2907.36 1245.69 2914.21C1270.64 2936.49 1298.57 2954.6 1326.8 2972.26C1341.67 2981.56 1358.1 2986.42 1375.7 2987.58C1450.07 2992.52 1522.14 2977.7 1594.07 2962.08C1645.28 2950.96 1696.9 2941.23 1745.61 2920.73C1752.26 2917.92 1761.66 2914.09 1765.52 2924.12C1768.77 2932.58 1760.25 2936.3 1754.38 2939.72C1719.27 2960.14 1680.81 2972.53 1642.46 2984.82C1577.87 3005.51 1513.12 3025.92 1444.93 3031.62C1436.88 3032.29 1437.64 3042.44 1444.44 3046.81C1455.6 3053.99 1468.08 3059.17 1479.36 3066.2C1514.06 3087.8 1550.7 3091.59 1589.99 3081.84C1627.94 3072.43 1665.42 3061.58 1701.46 3046.51C1733.91 3032.94 1765.64 3017.65 1797.76 3003.27C1799.34 3002.55 1800.93 3001.79 1802.54 3001.08C1815.17 2995.44 1824.34 3010.09 1812.95 3017.94C1760.67 3053.96 1706.29 3086.34 1647.94 3111.65C1635.34 3117.12 1636.03 3130.78 1648.49 3136.54C1674.58 3148.61 1713.16 3152.21 1735.27 3141.78C1774.63 3123.19 1813.17 3102.98 1849.34 3078.55C1853.05 3076.05 1856.87 3073.66 1860.86 3071.64C1867.35 3068.35 1874.47 3060.46 1881.3 3068.33C1888.81 3077 1879.98 3083.98 1874.83 3089.72C1855.46 3111.27 1831.83 3127.9 1808.69 3145.04C1795.9 3154.52 1798.6 3170.65 1814.09 3174.34C1833.41 3178.93 1856.78 3178.26 1868.28 3170.66C1889.1 3156.9 1909.57 3142.62 1930.14 3128.48C1936.65 3124.01 1943.35 3118.94 1950.62 3126.26C1958.75 3134.46 1950.29 3140.12 1946.35 3146.04C1932.19 3167.31 1942.47 3189.94 1968 3190.91C2030.34 3193.29 2091.31 3190.38 2152.15 3182.62C2153.84 3182.4 2155.16 3181.06 2155.37 3179.37C2155.56 3177.76 2154.69 3176.21 2153.21 3175.54C2128.7 3164.45 2103.61 3154.43 2079.9 3141.83C1881.66 3036.49 1754.77 2875.33 1709.3 2654.79C1679.25 2509.04 1694.26 2366.17 1763.53 2232.83C1849.32 2067.65 1979.17 1954.93 2165.97 1921.43C2347.04 1888.97 2509.16 1933.87 2640.21 2065.39C2749.99 2175.56 2794.73 2310.36 2767.45 2465.93C2738.91 2628.72 2605.64 2760.46 2441.86 2788.29C2285.08 2814.94 2130.94 2739.75 2066.65 2602.82C2021.64 2506.95 2015.37 2410.02 2073.41 2316.48C2161.09 2175.17 2350.32 2161.49 2442.05 2266.3C2512.43 2346.7 2505.77 2454.7 2438.08 2512.87C2386 2557.63 2310.25 2555.89 2265.67 2509.16C2232.09 2473.96 2229.39 2419.62 2260.55 2387.36C2271.29 2376.23 2283.84 2368.83 2298.61 2367.45C2308.16 2366.56 2313.23 2375.66 2303.91 2377.9C2279.5 2383.74 2267.29 2401.55 2262.82 2423.85C2258.56 2445.07 2269.02 2462.36 2285.58 2475.52C2313.34 2497.59 2353.88 2498.36 2384.18 2477.06C2440.52 2437.46 2442.44 2365.75 2403.02 2317.91C2334.86 2235.18 2212.87 2241.12 2143.17 2329C2073.92 2416.31 2081.07 2523.91 2155.05 2618.55C2248.88 2738.58 2437.44 2744.95 2556.34 2644.2C2683.48 2536.48 2714.18 2348.35 2627.52 2201C2550.42 2069.89 2433.49 2007.5 2283.87 2000.82C2057.23 1990.69 1876.71 2151.43 1822.31 2349.16C1764.56 2559.04 1816.58 2746.13 1958.72 2907.51C2062.88 3025.78 2197.05 3093.81 2352.28 3116.64C2464.99 3133.22 2575.63 3119.17 2682.18 3077.21C2693.34 3072.81 2694.88 3083.99 2684.7 3090.33C2437.55 3244.19 2170.12 3301.26 1881.28 3279.56Z" fill="white"/>
<path d="M1881.23 3280.06C1881.26 3279.73 1881.3 3279.4 1881.34 3279.07C1771.53 3266.77 1662.7 3243.13 1559.3 3204.08C1371.04 3133.79 1201.29 3017.2 1064.53 2870.49C948.909 2747.67 859.392 2600.8 802.345 2442.24C761.444 2329.56 736.96 2211.07 729.255 2091.52C718.928 1936.92 737.218 1780.7 781.98 1632.49C831.905 1465.1 914.713 1307.27 1027.89 1174.29C1060.81 1135.45 1096.14 1098.66 1133.51 1064.06C1249.69 956.14 1385.28 868.79 1533.21 811.9C1659.48 762.964 1793.63 735.54 1928.76 727.418C2077.11 718.144 2226.65 737.533 2368.94 780.29C2574.61 840.88 2762.11 957.526 2910.97 1111.44C3099.12 1301.49 3217.95 1554.64 3253.45 1819.08C3282.08 2017.05 3263.95 2221.17 3200.96 2410.88C3144.88 2583.28 3050.7 2744.22 2918.65 2868.34C2797.32 2986.08 2631.18 3055.17 2462.13 3051.66C2270.66 3054.15 2084.23 2960.25 1973.24 2804.37C1897.82 2705.06 1861.87 2577.34 1879.48 2453.99C1895.25 2296.99 1999.06 2153.11 2151.31 2107.47C2277.06 2059.88 2422.5 2096.87 2511.71 2197.14C2609.98 2296.17 2608.14 2477.56 2501.97 2568.65C2448.37 2618.6 2371.02 2634.93 2302.88 2608.37C2238.9 2587.11 2191.3 2532.86 2180.72 2466.43C2168.1 2406.56 2203.31 2339.36 2261.92 2324.78C2305.51 2311.76 2359.24 2333.14 2369.47 2375.12C2373.65 2390.24 2369.71 2409.36 2360.22 2419.35C2360.38 2419.2 2360.75 2418.74 2362.08 2418.13C2363.39 2417.66 2365.96 2416.39 2371 2418.35C2373.44 2419.35 2376.18 2421.75 2377.52 2424.51C2378.91 2427.26 2379.01 2429.76 2378.87 2431.3C2378.48 2434.44 2377.74 2434.96 2377.64 2435.23C2393.83 2414.41 2392.78 2380.48 2377.86 2360.13C2363.6 2339.32 2341.73 2324.48 2314.42 2323.07C2260.19 2320.63 2209.16 2364.03 2202.85 2417.94C2187.87 2517.58 2288.13 2607.21 2385.02 2586.92C2494.53 2569.19 2563.3 2448.82 2542.33 2345.38C2522.3 2223.31 2410.12 2131.31 2289.83 2122.32C2129.05 2108.13 1981.07 2237.9 1955.8 2392.76C1928.09 2558.09 2007.13 2731.38 2146.26 2822.99C2286.06 2922.78 2487.42 2917.57 2628.65 2825.19C2765.76 2747.62 2856.06 2597.01 2870.51 2441.96C2892.18 2282.83 2827.87 2117.5 2715.87 2005.72C2665.99 1953.72 2604.79 1914.94 2542.04 1883.68C2539.17 1882.24 2536.37 1880.8 2534.52 1879.67C2533.63 1879.13 2532.99 1878.61 2533.28 1878.85C2533.42 1878.98 2533.84 1879.36 2534.47 1880.3C2535.1 1881.22 2535.89 1882.85 2536.21 1884.6C2536.86 1888.33 2535.9 1890.01 2535.96 1890C2535.91 1890.08 2536.32 1889.24 2536.92 1888.28C2538.14 1886.29 2539.98 1883.7 2541.89 1881.05C2616.77 1776.66 2710.48 1685.99 2818.24 1616.28C2888.47 1570.62 2966.2 1536.75 3047.53 1516.98C3052.89 1515.66 3058.64 1514.38 3064.69 1512.77C3070.39 1510.81 3080.29 1509.31 3087.47 1495.41C3093.09 1480.72 3087.41 1472.15 3084.95 1466.62C3041.68 1384.71 2993.48 1303.37 2930.28 1232.82C2925.47 1227.47 2918.48 1220.99 2908.29 1217.88C2898.08 1214.77 2888.48 1216.3 2881.4 1218.24C2787.26 1243.74 2701.88 1295.06 2629.61 1358.12C2543.1 1433.01 2475.79 1526.4 2419.03 1623.27C2385.81 1679.84 2356.01 1738.42 2329.86 1798.59C2327.89 1803.11 2325.95 1807.64 2324.03 1812.17C2321.38 1818.64 2318 1823.41 2316.01 1824.61C2314.35 1825.83 2311.26 1826.61 2305.04 1825.68C2301.29 1825.16 2299.2 1823.55 2299.07 1823.21C2298.94 1823 2298.95 1823.08 2298.89 1822.67C2298.84 1822.27 2298.86 1821.3 2299.32 1819.88C2303.14 1807.8 2308.89 1795.48 2314.99 1782.48C2362.75 1680.47 2415.04 1580.7 2479.38 1489.36C2549.33 1389.39 2636.39 1300.05 2744.79 1246.64C2775.79 1231.18 2809.14 1220.4 2843.47 1213.86C2843.84 1213.79 2844.25 1213.72 2844.7 1213.64C2854.46 1212.22 2867.96 1205.95 2873.16 1191.41C2878.38 1176.75 2871.18 1162.76 2864.09 1155.87C2817.08 1107.86 2765.29 1064.74 2710.41 1026.39C2694.42 1013.22 2664.25 1009.39 2645.62 1017.37C2517.25 1058.95 2412.49 1156.67 2345.58 1270.12C2285.6 1369.3 2246.32 1478.22 2212.3 1586.61C2187.38 1665.95 2166.79 1746.4 2148.29 1827.09C2146.94 1833.35 2146.58 1837.56 2145.95 1839.67C2145.68 1840.7 2145.44 1841.01 2145.64 1840.69C2145.81 1840.38 2146.56 1839.63 2146.99 1839.41C2138.69 1844.78 2129.61 1846.33 2130.22 1845.6C2130.35 1845.66 2130.89 1845.85 2131.82 1846.56C2132.73 1847.24 2133.99 1848.63 2134.73 1850.16C2135.49 1851.68 2135.69 1853.04 2135.73 1853.67C2135.77 1854.32 2135.71 1854.38 2135.75 1854.12C2135.83 1853.55 2136.27 1851.87 2136.96 1849.65C2137.63 1847.32 2138.66 1844.73 2139.42 1839.67C2164.05 1655.05 2214.04 1473.39 2296.73 1306.89C2339.8 1219.34 2399.53 1139.97 2476.65 1081.34C2514.89 1052 2559.06 1030.5 2605.5 1014.78C2614.21 1012.35 2624.67 1002.07 2625.04 989.968C2625.83 978.046 2618.79 968.248 2611.4 963.54C2606.51 960.333 2602.3 958.297 2599.24 956.517C2548.1 927.217 2494.56 903.723 2441.44 881.153C2428.45 875.226 2412.75 877.098 2402.97 880.237C2318.62 904.284 2245.62 959.465 2191.66 1025.84C2117.39 1115.31 2074.96 1226.12 2051.07 1336.85C2020.77 1475.36 2008.71 1616.34 1999.7 1756.29C1996.89 1799.88 1994.75 1843.34 1992.08 1886.6C1991.77 1892.21 1991 1896.93 1989.88 1899.63C1990.12 1898.94 1990.95 1898.01 1991.51 1897.73C1992.09 1897.42 1992.28 1897.48 1992.2 1897.47C1992.8 1897.51 1994.58 1897.67 1996.81 1899.05C1999.07 1900.41 2000.6 1902.72 2000.98 1903.68C2001.42 1904.7 2001.3 1904.71 2001.22 1904.13C2001.13 1903.54 2001.01 1902.43 2000.83 1900.74C1991.03 1811.15 1986.83 1721.04 1991.38 1631.41C1996.48 1530.57 2007.05 1430.11 2027.64 1331.79C2054.49 1200.36 2099.77 1069.36 2194.54 976.489C2229.37 941.685 2272.32 914.867 2317.06 889.973C2318.12 889.237 2321.36 888.35 2326.98 884.142C2329.73 882.01 2333.32 878.146 2335.21 873.135C2337.15 868.141 2337.13 863.348 2336.64 859.896C2336.09 852.557 2329.66 843.758 2324.21 840.842C2318.8 837.538 2314.73 836.699 2311.77 835.891C2263.86 823.83 2214.84 812.452 2164.26 807.515C2107.89 800.893 2052.19 826.036 2011.57 859.007C1955.28 902.97 1913.33 962.216 1882.56 1024.49C1827.76 1133.79 1808.12 1257 1808.16 1376.74C1807.77 1531.44 1822.17 1686.04 1849.42 1838.15C1857.2 1881.63 1862.91 1925.89 1869.75 1970.41C1870.08 1972.55 1870.28 1974.49 1870.31 1976.06C1870.33 1976.38 1870.26 1976.33 1870.43 1975.75C1870.59 1975.2 1871.1 1974.07 1872.1 1973.05C1873.09 1972.03 1874.44 1971.32 1875.41 1971.06C1876.39 1970.79 1877.02 1970.83 1877.35 1970.87C1878.01 1970.99 1877.76 1971.03 1877.55 1970.81C1877.32 1970.6 1877 1970.21 1876.74 1969.4C1847.34 1880.22 1828.98 1787.28 1812.62 1693.71C1793.05 1581.98 1783.22 1468.58 1784.59 1355.28C1785.59 1266.18 1794.16 1177.01 1823.54 1094.47C1856.98 998.951 1911.22 910.051 1990.78 849.102C1995.9 845.133 2000.63 840.973 2005.1 836.798C2010.32 831.726 2012.24 826.304 2012.64 820.355C2013.02 814.695 2010.94 805.978 2003.2 800.613C1996.61 796.255 1991.4 796.44 1988.48 796.315C1937.62 796.016 1886.16 800.22 1835.9 811.744C1791.09 821.656 1752.16 848.344 1721.5 878.733C1632.69 963.75 1577.73 1083.21 1566.99 1205.01C1555.96 1314.14 1570.58 1423.49 1594.45 1528.39C1636.88 1715.61 1706.32 1893.8 1766.29 2073.37C1767.37 2076.6 1768.35 2079.32 1768.89 2081.31C1768.99 2081.57 1768.79 2081.4 1768.91 2079.99C1768.96 2078.7 1770 2075.49 1772.32 2073.46C1774.6 2071.4 1776.64 2071.04 1777.45 2070.93C1778.34 2070.85 1778.44 2070.95 1778.32 2070.91C1778.04 2070.87 1777 2070.42 1776.25 2069.79C1775.46 2069.17 1774.88 2068.42 1774.51 2067.7C1722.1 1964.12 1672.93 1859.06 1634.25 1750.32C1591.64 1630.69 1557.69 1507.84 1543.42 1382.39C1532.4 1286.92 1536.54 1189.58 1562.45 1097.66C1583.54 1021.57 1620.96 950.193 1675.13 893.472C1680.65 887.516 1686.63 877.465 1681.89 863.985C1679.57 857.403 1672.54 851.126 1665.55 849.667C1658.56 848.037 1653.14 849.477 1649.09 851.018C1647.69 851.568 1646.52 852.039 1645.69 852.343C1590.79 872.349 1534.06 890.78 1479.68 917.232C1453.01 929.989 1429.55 950.395 1412.7 974.252C1334.22 1080.68 1305.79 1219.28 1321.29 1348.27C1336.17 1488.77 1390.54 1619.84 1448.79 1744.41C1519.13 1895.16 1603.9 2038.06 1690.65 2178.76C1694.51 2185.01 1698.08 2192.06 1701.92 2199.55C1702.11 2199.9 1701.64 2199.27 1701.89 2197.65C1702.11 2196.02 1703.35 2194.62 1703.5 2194.58C1703.72 2194.43 1704.6 2193.72 1706.54 2193.31C1708.47 2192.86 1710.92 2193.31 1711.86 2193.76C1712.89 2194.21 1712.89 2194.36 1712.57 2194.08C1712.24 2193.8 1711.57 2193.16 1710.71 2192.26C1693.66 2174.49 1678.82 2153.51 1662.69 2132.31C1578.57 2021.88 1501.38 1906.13 1438.24 1783C1390.98 1690.93 1350.05 1595.61 1323.23 1496.32C1287.3 1366.07 1276.96 1226.4 1321.12 1099.33C1329.4 1074.91 1340.84 1050.97 1352.29 1026.33C1355.91 1018.82 1353.92 1009.16 1347.66 1003.69C1341.08 997.588 1330.26 997.085 1323.15 1002.5C1302.8 1017.5 1281.62 1032.24 1261.1 1048.71C1238.44 1066.92 1218.01 1086.41 1196.83 1103.7C1156.58 1135.94 1128.89 1182.87 1115.96 1231.57C1099.63 1290.83 1087.98 1353.64 1093.59 1417.17C1101.72 1512.23 1132.35 1603.62 1173.1 1688.17C1245.55 1839.11 1350.76 1969.48 1455.48 2096.06C1516.99 2170.44 1581.73 2241.73 1646.18 2312.88C1646.69 2313.43 1646.94 2313.86 1646.87 2313.74C1646.83 2313.64 1646.33 2312.79 1646.42 2310.83C1646.45 2308.9 1647.72 2306.34 1648.92 2305.28C1650.1 2304.15 1650.86 2303.98 1651.09 2303.9C1651.56 2303.82 1650.59 2303.98 1649.59 2303.62C1648.54 2303.3 1647.3 2302.63 1646.11 2301.59C1645.45 2301 1644.76 2300.41 1644.04 2299.8C1525.03 2199.04 1414.72 2087.93 1317.22 1966.4C1228.61 1856.2 1152.96 1734.86 1105.48 1602.21C1070.22 1505.08 1057.75 1399.86 1073.76 1297.98C1074.25 1294.55 1074.46 1290.54 1072.89 1285.58C1071.46 1280.79 1066.95 1274.42 1059.84 1272.12C1044.64 1268.08 1037.09 1277.48 1033.45 1282.39C1031.9 1284.65 1030.6 1286.64 1029.46 1288.2C997.662 1331.95 970.279 1378.14 943.293 1423.91C901.978 1491.51 900.389 1575.55 916.101 1648.49C937.793 1757.23 1000.14 1850.53 1064.86 1934.66C1158.49 2056.88 1274.3 2158.61 1391.83 2254.74C1459.07 2309.75 1525.85 2366.24 1597.26 2417.42C1608.33 2425.33 1618.76 2432.58 1627.24 2440.81C1627.9 2441.44 1628.23 2442.02 1628.26 2442.1C1628.35 2442.17 1627.82 2441.73 1628.38 2439.43C1628.68 2438.33 1629.54 2436.68 1631.01 2435.44C1632.46 2434.19 1634.23 2433.62 1635.28 2433.5C1636.36 2433.38 1636.82 2433.52 1636.93 2433.54C1637.04 2433.57 1636.82 2433.51 1636.47 2433.34C1550.88 2391.24 1471.33 2337.14 1393.78 2280.16C1294.16 2207.02 1198.91 2127.84 1113.98 2038.63C1040.84 1962.02 973.375 1878.88 933.078 1782.21C916.448 1742.59 904.944 1700.79 897.433 1658.18C896.756 1654.53 895.455 1650.21 891.735 1645.95C888.166 1641.66 881.189 1638.44 874.958 1639.08C862.159 1640.56 856.91 1649.69 854.581 1656.14C847.17 1677.55 841.78 1699.29 836.766 1720.65C819.839 1791.38 815.104 1868.78 839.049 1940.31C864.26 2017.73 907.543 2089.42 964.265 2147.81C1041.22 2227.54 1132.54 2290.53 1225.1 2348.18C1351.8 2427.15 1488.12 2486.93 1621.55 2549.76C1622.51 2550.2 1622.58 2550.56 1622.25 2550.04C1621.92 2549.54 1621.67 2548.17 1622.13 2547.13C1622.52 2546.05 1623.51 2545.34 1623.96 2545.23C1624.43 2545.09 1624.09 2545.3 1623.07 2545.01C1619.59 2544.06 1615.61 2542.5 1610.94 2540.85C1540.11 2516.07 1469.13 2493.05 1401.67 2462.75C1301.5 2417.79 1202.39 2370.49 1112.46 2309.1C1033.89 2255.58 960.32 2194.33 900.967 2120.84C879.7 2094.59 862.903 2064.58 848.428 2033.22C845.241 2027.22 840.555 2017.75 825.603 2017.48C818.076 2017.67 811.332 2023.94 809.388 2028.95C807.122 2034.09 807.053 2038.31 807.25 2042.02C807.28 2042.48 807.304 2042.9 807.319 2043.3C806.726 2229.75 927.498 2409.35 1098.02 2482.76C1233.68 2547.79 1377.48 2592.42 1521.64 2631.1C1554.86 2640.01 1588.68 2649.56 1623.98 2654.52C1629.55 2655.29 1635.65 2657.18 1642.25 2659.35C1643.71 2659.78 1644.43 2660.46 1643.79 2659.89C1643.51 2659.61 1643.04 2658.87 1642.86 2658.21C1642.67 2657.53 1642.72 2657.12 1642.72 2657.15C1642.72 2657.2 1642.75 2656.78 1643.14 2656.09C1643.52 2655.41 1644.3 2654.68 1644.78 2654.42C1645.82 2653.91 1645.08 2654.38 1643.73 2654.3C1628.64 2654.1 1614.35 2654.53 1601.15 2652.7C1436.64 2630.13 1273.36 2592.5 1122.28 2524.48C1049.81 2492.06 978.438 2455.55 924.54 2399.23C916.706 2391.21 909.858 2379.87 899.085 2369.38C894.553 2365.18 889.12 2362.55 881.747 2362.93C878.187 2363.23 872.752 2364.52 868.888 2370.15C865.122 2375.96 866.252 2381.73 867.267 2384.78C886.986 2444.12 909.223 2506.27 952.155 2556.34C1005.18 2619.15 1080.31 2657.62 1155.66 2682.4C1230.21 2707.26 1307.39 2720.45 1383.71 2732.86C1471.94 2747.21 1561.17 2755.51 1650.54 2757.6C1658.07 2757.62 1663.34 2756.74 1667.18 2757.13C1668.07 2757.21 1668.77 2757.35 1669.1 2757.46C1669.45 2757.56 1669.33 2757.59 1668.97 2757.3C1668.62 2757.01 1668.25 2756.42 1668.2 2756.24C1668.14 2756.05 1668.24 2756.29 1668.25 2756.85C1668.27 2757.33 1668.19 2757.46 1668.28 2757.19C1668.35 2756.93 1668.72 2756.35 1668.98 2756.14C1669.59 2755.71 1668.57 2756.43 1666.69 2756.71C1662.73 2757.46 1657.41 2757.11 1649.91 2757.85C1572.73 2767.19 1494.31 2765.21 1415.92 2761.13C1325.47 2756.48 1235.51 2740.9 1149.74 2712.23C1115.24 2700.73 1082.03 2684.94 1049.42 2667.65C1044.12 2665.23 1041.86 2665.71 1038.52 2665.99C1036.85 2666.29 1035.22 2666.46 1032.27 2668.19C1030.88 2669.12 1028.43 2670.68 1026.96 2674.89C1025.5 2679.27 1027.21 2683.44 1028.32 2685.06C1061.63 2738.04 1100.63 2795.72 1162.76 2823.73C1215.06 2847.88 1271.73 2862.01 1328.86 2866.86C1447.01 2877.05 1565.2 2865.34 1681.26 2849.07C1684.58 2848.6 1687.66 2848.08 1690.54 2847.69C1692.37 2847.43 1693.87 2847.63 1694.67 2847.94C1695.07 2848.09 1695.28 2848.26 1695.34 2848.31C1695.41 2848.37 1695.32 2848.3 1695.23 2848.07C1695.14 2847.85 1695.1 2847.46 1695.16 2847.19C1695.21 2846.92 1695.31 2846.81 1695.23 2846.93C1695.09 2847.17 1694.03 2848.05 1692.3 2848.64C1635.64 2868.98 1575.31 2878.34 1514.64 2884.75C1433.47 2893.43 1351.84 2901.05 1272.62 2887.07C1256.99 2884.34 1241.33 2881.47 1225.59 2878.72C1223.83 2878.37 1220.71 2878.48 1218.12 2880.03C1215.52 2881.55 1214.25 2883.6 1213.6 2884.98C1212.36 2887.81 1212.44 2889.3 1212.4 2890.7C1212.55 2893.47 1212.65 2895.18 1214.73 2898.71C1222.24 2909.96 1232.37 2915.7 1238.96 2921.75C1264.6 2944.62 1293.17 2963.1 1321.47 2980.78C1337.57 2990.93 1356.46 2996.43 1375.04 2997.58C1450.48 3002.61 1524.46 2987.38 1596.17 2971.74C1647.14 2960.63 1699.7 2950.71 1749.41 2929.74C1752.81 2928.24 1755.89 2927.31 1756.8 2927.38C1757 2927.38 1756.99 2927.41 1756.83 2927.36C1756.67 2927.31 1756.37 2927.17 1756.2 2927.02C1755.83 2926.7 1756.1 2926.81 1756.4 2927.62C1756.49 2927.85 1756.49 2927.93 1756.48 2927.84C1756.47 2927.75 1756.46 2927.46 1756.53 2927.18C1756.59 2926.89 1756.72 2926.65 1756.75 2926.61C1756.79 2926.55 1756.72 2926.67 1756.51 2926.87C1755.62 2927.81 1752.94 2929.33 1749.48 2931.29C1715.77 2950.96 1677.82 2963.32 1639.51 2975.6C1575.08 2996.32 1510.52 3016.56 1444.14 3022.1C1440.87 3022.33 1436.23 3023.8 1433.1 3027.63C1429.97 3031.41 1429.32 3035.94 1429.65 3039.38C1430.42 3046.35 1434.18 3051.47 1439.28 3054.83C1451.49 3062.63 1463.92 3067.76 1474.34 3074.27C1508.7 3096.65 1553.61 3101.42 1592.26 3091C1630.34 3081.53 1668.4 3070.51 1705.07 3055.15C1737.84 3041.42 1769.61 3026.08 1801.55 3011.75C1803.3 3010.96 1804.87 3010.21 1806.32 3009.56C1807.41 3009.07 1808.13 3009.07 1808.44 3009.13C1808.76 3009.2 1808.84 3009.31 1808.87 3009.35C1808.88 3009.41 1808.83 3009.16 1808.86 3009.13C1808.89 3009.1 1808.68 3009.63 1807.69 3010.31C1755.91 3046.05 1701.74 3078.32 1644.3 3103.26C1637.36 3105.97 1629.04 3114.03 1629.7 3124.61C1630.29 3134.98 1637.89 3141.78 1644.66 3144.82C1674.33 3157.18 1706.42 3162.9 1739.14 3149.97C1778.69 3131.27 1817.76 3110.76 1854.37 3086C1857.9 3083.61 1861.4 3081.43 1864.91 3079.64C1869.62 3077.13 1872.51 3074.78 1874.3 3074.11C1874.7 3073.95 1874.94 3073.9 1874.94 3073.9C1874.94 3073.91 1874.68 3073.92 1874.42 3073.85C1874.15 3073.79 1873.98 3073.67 1874.02 3073.7C1874.06 3073.72 1874.26 3073.88 1874.53 3074.2C1875.24 3075 1875.3 3075.43 1875.26 3075.24C1875.25 3075.17 1875.26 3075.05 1875.25 3075.13C1875.24 3075.19 1875.17 3075.44 1874.96 3075.83C1874.14 3077.52 1871.47 3080.19 1868.18 3083.74C1849.8 3104.26 1826.62 3120.7 1803.41 3137.9C1796.5 3142.84 1790.16 3152.36 1792.02 3163.22C1793.73 3174.2 1803.7 3181.24 1812.04 3182.95C1831.74 3186.79 1851.54 3189.69 1873.14 3178.01C1894.08 3164.16 1914.58 3149.83 1935.1 3135.71C1938.3 3133.45 1941.17 3131.65 1942.39 3131.4C1942.68 3131.33 1942.82 3131.32 1942.87 3131.32C1942.92 3131.33 1942.9 3131.32 1942.97 3131.34C1943.08 3131.37 1943.66 3131.66 1944.4 3132.43C1945.2 3133.2 1945.45 3133.82 1945.34 3133.55C1945.3 3133.43 1945.26 3133.1 1945.29 3132.92C1945.31 3132.74 1945.34 3132.76 1945.23 3133C1944.81 3134.18 1942.16 3136.8 1939.07 3141.2C1932.21 3151.31 1928.08 3166.07 1934.28 3179.52C1940.38 3193.15 1955.4 3199.42 1967.67 3199.6C2029.62 3201.95 2091.77 3199.03 2153.23 3191.12C2158.69 3190.5 2163.3 3185.83 2163.87 3180.4C2164.57 3175.23 2161.55 3169.83 2156.74 3167.74C2132 3156.56 2107.13 3146.64 2083.89 3134.31C1896.85 3039.63 1755.7 2860.02 1717.21 2653.16C1687.14 2513.28 1703.33 2363.17 1770.43 2236.41C1847.55 2080.29 1993.41 1955.98 2167.27 1928.72C2334.72 1894.55 2516.88 1945.79 2635.23 2070.36C2739.98 2170.47 2789.23 2322.41 2760.84 2464.77C2734.28 2623.26 2599.37 2756.11 2440.79 2782.02C2295.9 2809.02 2134.03 2736.14 2072.1 2600.26C2028.1 2512.35 2023.27 2402.8 2078.33 2319.53C2147.96 2195.93 2342.46 2159.28 2437.94 2269.89C2499.16 2334.79 2505.49 2450.28 2434.66 2508.89C2389.2 2549.99 2311.43 2551.34 2269.36 2505.63C2239.4 2475.58 2233.84 2421.46 2264.14 2390.83C2273.68 2380.83 2285.78 2373.53 2299.07 2372.4C2301.24 2372.11 2303.46 2373.05 2303.9 2373.74C2304.01 2373.87 2303.95 2373.88 2303.91 2373.59C2303.85 2373.31 2304 2372.77 2304.15 2372.6C2304.48 2372.27 2303.83 2372.88 2302.76 2373.08C2278.99 2377.6 2261.5 2400.4 2258.02 2422.89C2252.82 2444.97 2266.21 2467.1 2282.57 2479.32C2312.08 2503.16 2356.7 2502.78 2386.92 2480.95C2441.93 2446.07 2448.78 2362.17 2406.59 2314.97C2341.74 2228.82 2199.72 2241.72 2139.73 2326.27C2067.18 2409.77 2083.11 2540.85 2151.8 2621.09C2247.58 2745.21 2445.07 2746.25 2558.78 2647.07C2687.4 2541.11 2716.72 2340.25 2630.42 2199.29C2562.63 2075.28 2423.68 1999.74 2284.01 1997.8C2254.8 1996.52 2225.45 1998.04 2196.55 2002.48C2016.2 2028.61 1866.43 2174.75 1819.91 2348.5C1760.55 2542.82 1820.09 2761.59 1957.24 2908.81C2057.19 3024.31 2201.46 3097.55 2352.05 3118.2C2463.24 3134.89 2578.43 3119.98 2682.64 3078.39C2686.07 3076.85 2690.54 3077.19 2690.25 3080.75C2690.1 3084.12 2687.22 3087.3 2684.04 3089.27C2447.35 3239.87 2160.06 3302.05 1881.32 3279.06C1881.29 3279.4 1881.27 3279.73 1881.24 3280.06C2160.09 3303.58 2447.96 3241.86 2685.36 3091.4C2688.93 3089.12 2692.44 3085.74 2692.78 3080.8C2693.02 3078.36 2690.95 3075.46 2688.4 3075.11C2685.94 3074.63 2683.74 3075.25 2681.71 3076.02C2577.79 3117.28 2463.13 3131.89 2352.51 3115.09C2202.55 3094.25 2059.36 3021.19 1960.19 2906.21C1823.98 2759.33 1765.52 2542.68 1824.71 2349.82C1871.05 2177.89 2019.54 2033.72 2197.43 2008.29C2225.96 2003.96 2254.91 2002.51 2283.74 2003.83C2422.08 2006.14 2557.82 2080.33 2624.62 2202.7C2709.09 2341.17 2679.83 2538 2553.91 2641.33C2442.97 2737.92 2250.25 2736.03 2158.3 2616.01C2091.42 2537.05 2076.73 2412.23 2146.6 2331.72C2204.46 2250.95 2338.25 2239.43 2399.45 2320.84C2438.39 2364.97 2431.99 2441.05 2381.44 2473.16C2354.38 2492.67 2314.47 2492.77 2288.6 2471.73C2273.69 2460.29 2263.48 2442.71 2267.62 2424.81C2271.17 2404.38 2284.88 2386.79 2305.06 2382.71C2307.27 2382.11 2309.96 2381.37 2312.3 2378.22C2314.83 2374.91 2313.67 2369.81 2311.73 2367.67C2307.83 2362.99 2302.64 2362.16 2298.15 2362.51C2282.01 2363.85 2267.5 2372.81 2256.96 2383.89C2222.26 2419.16 2228.94 2479.37 2261.97 2512.68C2308.04 2562.75 2392.44 2561.1 2441.5 2516.86C2517.64 2453.98 2510.38 2330.77 2446.16 2262.7C2344.81 2145.52 2141.6 2184.43 2068.49 2313.42C2010.98 2399.66 2016.07 2515.51 2061.21 2605.38C2125.42 2746.7 2293.09 2822.25 2442.93 2794.56C2606.87 2767.93 2746.2 2631.31 2774.07 2467.09C2803.62 2321.38 2752.55 2162.96 2645.2 2060.42C2524.51 1932.63 2335.59 1879.23 2164.66 1914.14C1986.35 1941.61 1835.12 2070.32 1756.63 2229.24C1687.64 2359 1670.81 2513.57 1701.39 2656.43C1740.11 2867.45 1885.45 3052.88 2075.91 3149.34C2100.22 3162.27 2125.42 3172.34 2149.68 3183.34C2147.78 3182.51 2146.59 3180.38 2146.86 3178.35C2147.09 3176.2 2148.9 3174.36 2151.06 3174.11C2090.49 3181.83 2029.32 3184.61 1968.33 3182.22C1950.46 3182.28 1943.12 3165.48 1953.62 3150.88C1954.83 3148.86 1958.13 3146.22 1961.08 3140.4C1962.55 3137.51 1963.42 3132.61 1962.12 3128.61C1960.9 3124.6 1958.76 3122.08 1956.83 3120.09C1953.47 3116.05 1944.5 3112.19 1937.97 3114.45C1931.71 3116.24 1928.3 3119.21 1925.17 3121.26C1904.56 3135.4 1884.12 3149.64 1863.42 3163.3C1852.25 3169.9 1832.07 3169.44 1816.14 3165.72C1807.88 3163.4 1807.07 3157.82 1813.98 3152.17C1836.96 3135.16 1861.26 3118.15 1881.48 3095.69C1883.81 3093 1887.59 3089.96 1890.79 3084.17C1892.35 3081.3 1893.67 3076.97 1892.96 3072.57C1892.29 3068.17 1890.13 3064.86 1888.06 3062.47C1886.1 3060.2 1883.08 3057.54 1878.69 3056.45C1874.29 3055.35 1870.16 3056.42 1867.47 3057.54C1862.1 3059.88 1858.98 3062.62 1856.8 3063.64C1852.32 3065.91 1848.21 3068.49 1844.32 3071.11C1808.77 3095.09 1770.52 3115.15 1731.4 3133.58C1708.52 3143.16 1676.67 3139.02 1652.32 3128.26C1649.18 3126.86 1647.88 3124.63 1647.95 3123.72C1647.94 3123.23 1648.02 3122.83 1648.54 3122.16C1649.05 3121.5 1650.09 3120.68 1651.58 3120.04C1710.47 3094.56 1765.72 3061.71 1818.21 3025.57C1825.22 3021.81 1831.01 3008.21 1824.41 2999.21C1818.68 2989.97 1805.85 2988.89 1798.75 2992.6C1797 2993.38 1795.41 2994.13 1793.96 2994.78C1761.68 3009.22 1730.02 3024.45 1697.85 3037.88C1662.48 3052.65 1625.34 3063.38 1587.72 3072.69C1552.37 3081.94 1514.8 3077.76 1484.39 3058.12C1472.17 3050.55 1459.83 3045.42 1449.6 3038.79C1449.3 3038.6 1449.04 3038.34 1448.86 3038.06C1448.68 3037.8 1448.63 3037.5 1448.66 3037.64C1448.67 3037.72 1448.73 3038.66 1447.8 3039.82C1447.36 3040.36 1446.75 3040.77 1446.34 3040.94C1445.93 3041.12 1445.72 3041.13 1445.73 3041.13C1514.9 3035.42 1580.92 3014.65 1645.41 2994.03C1683.74 2981.78 1723.14 2969.15 1759.29 2948.15C1761.97 2946.53 1765.81 2944.9 1770.11 2940.88C1772.21 2938.86 1774.63 2935.68 1775.56 2931.55C1776.53 2927.42 1775.74 2923.45 1774.63 2920.61C1773.53 2917.78 1771.77 2914.44 1768.31 2911.68C1764.87 2908.88 1760.22 2907.77 1756.79 2907.83C1749.84 2908.01 1745.56 2910.23 1741.82 2911.71C1694.62 2931.59 1643.34 2941.33 1591.97 2952.43C1520.36 2967.99 1448.27 2982.51 1376.37 2977.59C1360.53 2976.57 1345.28 2972.03 1332.13 2963.74C1304.03 2946.15 1276.5 2928.21 1252.43 2906.67C1243.71 2899.05 1235.59 2893.86 1231.7 2887.64C1232.36 2888.7 1232.42 2889.08 1232.53 2889.45C1232.61 2889.8 1232.66 2890.05 1232.66 2890.52C1232.62 2891.03 1232.79 2891.61 1231.93 2893.62C1231.46 2894.6 1230.48 2896.28 1228.27 2897.57C1226.06 2898.89 1223.42 2898.96 1222.1 2898.69C1237.72 2901.44 1253.37 2904.32 1269.1 2907.1C1351.85 2921.76 1435.52 2913.82 1516.8 2905.27C1578.09 2898.86 1640.15 2889.42 1699.32 2868.28C1703.5 2866.75 1708.03 2864.41 1711.76 2859.66C1715.53 2855.07 1717.34 2847.18 1714.81 2840.81C1709.36 2827.57 1695.95 2825.77 1687.74 2826.98C1684.4 2827.43 1681.28 2827.95 1678.38 2828.36C1562.84 2844.42 1446.24 2855.72 1330.7 2845.6C1275.77 2840.87 1221.66 2827.27 1171.77 2804.18C1116.4 2779.26 1079.87 2726.5 1046.71 2673.43C1047.43 2674.45 1048.91 2677.86 1047.68 2681.54C1046.44 2685.05 1044.57 2686.1 1043.78 2686.65C1042.9 2687.19 1042.47 2687.31 1042.17 2687.41C1041.88 2687.49 1041.73 2687.52 1041.63 2687.53C1041.43 2687.56 1041.41 2687.56 1041.2 2687.54C1040.96 2687.49 1040.66 2687.59 1039.21 2686.88C1072.35 2704.49 1106.62 2720.89 1142.8 2733.01C1230.6 2762.46 1322.57 2778.48 1414.76 2783.32C1493.52 2787.5 1573.24 2789.68 1652.6 2780.18C1656.67 2779.68 1663.09 2780.14 1670.63 2778.88C1674.42 2778.13 1679.25 2777.12 1684.2 2772.74C1689.35 2768.26 1691.08 2760.81 1690.78 2756.17C1690.74 2751.69 1689.04 2744.64 1683.59 2740.13C1678.28 2735.76 1673.1 2735.1 1669.22 2734.67C1661.46 2734.05 1655.15 2735.16 1651.08 2735.03C1562.75 2732.87 1474.59 2724.56 1387.39 2710.28C1311.21 2697.82 1235.3 2684.67 1162.98 2660.45C1089.59 2636.21 1019.18 2599.59 969.958 2541.15C930.624 2495.28 909.187 2436.48 889.675 2377.34C889.736 2377.54 889.909 2378.02 889.898 2379.06C889.897 2380.06 889.549 2381.76 888.567 2383.21C886.407 2386.26 884.125 2386.4 883.547 2386.48C882.824 2386.52 882.782 2386.43 882.736 2386.43C882.71 2386.42 882.728 2386.43 882.697 2386.4C890.603 2393.92 897.361 2404.98 907.471 2415.63C964.913 2475.72 1039.49 2513.53 1112.46 2546.31C1266.28 2615.76 1431.92 2654.01 1597.79 2676.95C1613.8 2679.15 1629.05 2678.58 1643.36 2678.83C1647.14 2678.81 1651.74 2678.67 1657.28 2675.54C1663.04 2672.48 1666.78 2664.95 1667.09 2660.08C1667.94 2655.19 1666.07 2647.32 1661.66 2643.05C1657.45 2638.73 1653.31 2637.2 1649.91 2636.02C1643.17 2633.81 1635.8 2631.38 1627.42 2630.18C1594.29 2625.5 1561.46 2616.27 1528.05 2607.26C1384.54 2568.6 1242.29 2524.2 1108.91 2460.07C944.721 2388.22 833.138 2221.78 833.02 2042.34C832.993 2041.63 832.956 2040.96 832.914 2040.32C832.815 2039.34 833.115 2038.8 832.784 2039.65C832.597 2040.06 832.132 2040.88 831.093 2041.7C830.081 2042.51 828.5 2043.1 827.24 2043.16C824.604 2043.23 824.005 2042.31 824.054 2042.42C824.106 2042.45 824.621 2043.05 825.049 2044.01C840.028 2076.54 857.781 2108.54 880.859 2137.09C942.244 2213.24 1017.89 2276.18 1097.71 2330.69C1189.8 2393.67 1290.35 2441.67 1390.81 2486.89C1460 2518.04 1531.7 2541.32 1602.11 2566.04C1606.08 2567.42 1610.62 2569.26 1615.97 2570.75C1624.67 2573.86 1641.71 2571.01 1647.02 2556.83C1652.87 2542.73 1641.58 2528.75 1632.95 2525.58C1499.13 2462.43 1363.88 2402.88 1239.47 2325.13C1147.65 2267.84 1058.41 2205.96 984.026 2128.73C930.12 2073.11 889.287 2005.33 865.357 1931.68C843.588 1866.42 847.603 1795.01 863.908 1727.04C868.891 1705.88 874.083 1685.16 880.988 1665.28C881.098 1664.93 881.203 1664.97 880.793 1665.4C880.394 1665.8 879.319 1666.76 877.041 1666.96C874.783 1667.25 871.811 1665.8 870.838 1664.52C869.763 1663.25 869.874 1662.77 869.891 1663.03C877.659 1707.34 889.656 1751.22 907.172 1793.05C949.425 1894.61 1019.46 1980.54 1093.43 2058.19C1179.79 2149.06 1276.32 2229.38 1376.78 2303.29C1454.82 2360.72 1535.7 2415.93 1623.67 2459.31C1627.38 2461.03 1631.86 2462.96 1638.91 2462.23C1646.01 2461.91 1654.78 2454.52 1656.23 2447.4C1659.31 2433.3 1652.68 2425.58 1647.41 2420.01C1636.62 2409.55 1624.86 2401.54 1614.17 2393.85C1544.05 2343.51 1477.78 2287.4 1410.35 2232.12C1293.39 2136.33 1179.55 2035.92 1088.37 1916.66C1024.31 1833.35 965.44 1743.96 945.375 1642.56C930.583 1572.78 932.726 1498.92 969.169 1439.18C996.157 1393.47 1023.12 1348.16 1053.86 1305.95C1055.64 1303.5 1057.04 1301.32 1058.31 1299.49C1058.41 1299.31 1058.4 1299.56 1057.37 1300.2C1056.43 1300.76 1053.72 1301.89 1050.15 1300.7C1046.54 1299.54 1044.55 1296.33 1044.2 1294.99C1043.76 1293.51 1043.97 1293.21 1043.92 1293.39C1026.98 1400.35 1040.14 1511.31 1076.83 1612.5C1125.63 1749.17 1203.23 1873.57 1293.22 1985.65C1391.97 2108.93 1503.63 2221.55 1623.92 2323.54C1624.48 2324.01 1625.05 2324.5 1625.63 2325.02C1633.84 2331.99 1645.07 2337.39 1659.44 2333.89C1663.04 2332.87 1667.03 2331.09 1670.72 2327.51C1674.44 2324.03 1677.31 2318.08 1677.51 2312.66C1677.7 2301.51 1672.72 2296.13 1669.28 2291.98C1604.85 2220.76 1540.5 2149.77 1479.65 2076.09C1375.12 1949.62 1271.9 1821.11 1201.68 1674.45C1162.09 1592.16 1133.02 1504.59 1125.37 1414.42C1120.27 1356.48 1130.91 1297.64 1146.84 1240.07C1158.63 1196.22 1182.28 1156.6 1217.14 1128.58C1239.59 1110.25 1259.97 1090.84 1281.24 1073.8C1300.61 1058.26 1321.43 1043.77 1342.25 1028.45C1337.57 1032.01 1330.46 1031.68 1326.12 1027.66C1322 1024.06 1320.69 1017.69 1323.07 1012.74C1311.72 1037.14 1299.69 1062.09 1290.55 1088.95C1243.59 1223.69 1254.97 1371.21 1291.81 1504.81C1319.36 1607.07 1361.23 1704.53 1409.1 1797.94C1473.29 1923.32 1551.55 2040.74 1636.43 2152.29C1652.07 2172.83 1667.54 2194.92 1686.84 2215.11C1689.25 2217.43 1691.94 2221.04 1699.25 2224.31C1702.86 2225.89 1708.3 2226.76 1713.08 2225.71C1717.88 2224.73 1721.35 2222.58 1723.85 2220.64C1728.6 2217.07 1733.35 2210.55 1734.5 2203.15C1735.74 2195.78 1733.8 2189.21 1731.34 2184.43C1727.58 2177.13 1723.68 2169.3 1718.82 2161.4C1632.34 2020.97 1548.36 1879.11 1479.04 1730.31C1421.17 1606.48 1368.81 1478.97 1354.71 1344.69C1340.21 1221.43 1366.79 1093.74 1440.19 993.948C1454.37 974.027 1472.71 958.161 1494.49 947.686C1546.08 922.59 1601.63 904.47 1657.3 884.253C1659.01 883.628 1660.35 883.073 1661.48 882.634C1661.37 882.631 1660.29 883.27 1657.45 882.649C1654.6 882.138 1651.09 878.992 1650.27 876.382C1649.28 873.759 1649.67 872.095 1649.94 871.208C1650.24 870.305 1650.52 870.064 1650.5 870.081C1592.11 931.103 1551.9 1008.08 1529.62 1088.45C1502.25 1185.32 1498.02 1287.4 1509.39 1386.27C1524.01 1515.25 1558.72 1640.67 1601.8 1761.85C1641.18 1872.69 1690.96 1979.09 1743.63 2083.31C1749.19 2093.96 1758.18 2101.52 1770.5 2104.63C1776.56 2105.75 1785.49 2107.48 1795.74 2098.94C1800.58 2094.64 1802.99 2088.09 1803.35 2083.46C1803.79 2078.69 1803.08 2075.14 1802.27 2072.11C1801.16 2068.14 1800 2065.05 1799.13 2062.41C1738.84 1881.74 1670.02 1704.57 1628.47 1520.69C1605.08 1417.72 1591.29 1312.35 1601.84 1208.49C1612.24 1093.44 1662.86 983.758 1746.11 903.856C1774.27 876.052 1806.92 854.247 1843.75 846.079C1890.79 835.313 1939.43 831.288 1988.28 831.594C1988.64 831.494 1986.91 832.052 1983.09 829.604C1978.14 826.135 1977.22 820.977 1977.4 818.585C1977.64 815.931 1978.22 813.797 1981.02 811.006C1977.08 814.682 1973.15 818.122 1969.17 821.204C1883.06 887.057 1825.01 983.028 1790.17 1082.62C1758.83 1170.62 1750.16 1263.88 1749.08 1354.85C1747.64 1470.47 1757.63 1586.1 1777.51 1699.84C1793.93 1793.91 1812.51 1888.59 1842.79 1980.58C1846.67 1992.62 1857.13 2004.05 1872.57 2006.29C1880.11 2007.43 1890.44 2005.52 1897.62 1998.09C1904.82 1990.69 1906.21 1981.59 1906.06 1975.26C1905.97 1971.5 1905.57 1968.12 1905.09 1964.99C1898.35 1921.04 1892.63 1876.49 1884.66 1831.85C1857.81 1681.69 1843.67 1529.26 1844.11 1376.83C1844.12 1260.54 1863.15 1143.59 1914.85 1040.54C1944.09 981.432 1982.85 927.244 2033.88 887.407C2071.32 857.408 2115.29 838.358 2160.74 843.499C2208.23 848.134 2255.45 859.013 2302.93 870.991C2304.95 871.45 2305.94 872.03 2304.92 871.468C2304.43 871.168 2303.34 870.351 2302.4 868.956C2301.44 867.581 2300.9 865.861 2300.78 864.851C2300.7 864.245 2300.55 862.395 2301.45 860.084C2302.31 857.761 2303.97 856.15 2304.47 855.785C2305.55 855.121 2303.36 856.29 2299.43 858.349C2253.8 883.76 2207.67 912.193 2168.95 950.811C2066.7 1051.03 2019.38 1190.75 1992.06 1324.34C1970.94 1425.06 1960.2 1527.43 1955.01 1629.56C1950.31 1721.54 1954.62 1813.62 1964.57 1904.7C1964.97 1907.19 1964.69 1911.46 1967.77 1918.77C1969.33 1922.36 1972.71 1927.08 1977.44 1929.97C1982.15 1932.91 1986.83 1933.73 1990.33 1933.91C2002.76 1934.96 2018.48 1927.28 2023.77 1913.17C2027.35 1904 2028.02 1895.9 2028.51 1888.85C2031.2 1845.29 2033.35 1801.86 2036.14 1758.64C2045.14 1619.2 2057.17 1480.09 2086.83 1344.68C2110.05 1237.23 2150.51 1132.78 2219.96 1049.16C2270.79 986.815 2336.86 937.324 2413.31 915.461C2420.4 913.428 2423.59 913.505 2427.08 914.942C2479.94 937.396 2532.1 960.369 2580.97 988.393C2585.35 990.882 2588.86 992.661 2591.14 994.191C2590.37 993.736 2588.13 991.528 2588.37 987.608C2588.46 985.718 2589.34 983.598 2590.56 982.211C2591.78 980.793 2593.08 980.183 2593.69 979.98C2544.46 996.635 2496.4 1019.86 2454.3 1052.14C2372.05 1114.62 2308.66 1199.22 2263.74 1290.56C2178.98 1461.16 2127.94 1646.96 2102.87 1834.76C2102.96 1834.49 2102.45 1836.51 2101.71 1838.81C2100.99 1841.21 2100.01 1844.17 2099.32 1848.39C2098.75 1852.48 2098.01 1858.9 2101.7 1866.57C2105.49 1874.32 2112.58 1878.43 2117.17 1880.1C2140.37 1887.27 2154.49 1876.98 2165.66 1871.22C2174.85 1866.19 2180.11 1855.58 2181.56 1849.28C2183.27 1842.68 2183.61 1837.85 2184.25 1835.33C2202.62 1755.25 2222.98 1675.75 2247.51 1597.68C2281.22 1490.23 2319.67 1384.28 2377.2 1289.23C2441.39 1180.82 2538.1 1091.23 2657.45 1052.39C2670.68 1048.1 2678.01 1049.04 2689.22 1056.69C2742.42 1093.87 2792.4 1135.5 2837.67 1181.74C2838.28 1182.35 2838.32 1182.68 2838.15 1182.22C2837.98 1181.8 2837.81 1180.4 2838.29 1179.12C2838.73 1177.81 2839.61 1177.03 2839.84 1176.9C2840.1 1176.74 2839.74 1177 2838.84 1177.13C2838.11 1177.25 2837.34 1177.38 2836.53 1177.54C2799.26 1184.63 2762.57 1196.44 2728.3 1213.54C2612.71 1270.48 2521.06 1365.23 2449.14 1468.06C2382.94 1562.04 2329.71 1663.8 2281.49 1766.79C2275.44 1779.74 2268.9 1793.42 2264.05 1808.7C2260.51 1818.83 2260.84 1834.36 2269.44 1845.36C2277.77 1856.34 2289.5 1860.72 2299.48 1862.26C2309.79 1863.94 2324.88 1863.73 2337.17 1854.96C2349.15 1846.32 2354.14 1835.55 2358.09 1826.61C2359.97 1822.18 2361.87 1817.76 2363.79 1813.34C2389.35 1754.54 2418.47 1697.29 2450.93 1642C2506.56 1547.03 2571.54 1457.28 2653.84 1386.03C2723.1 1325.61 2803.25 1277.69 2891.17 1253.83C2894.89 1252.79 2896.92 1252.96 2897.55 1253.19C2898.21 1253.34 2900.14 1254.43 2902.79 1257.43C2962.87 1324.43 3009.66 1402.96 3052.4 1483.83C3052.95 1484.84 3053.18 1485.65 3053.1 1485.38C3053.06 1485.22 3052.65 1483.08 3053.85 1480.39C3055.07 1477.71 3056.84 1476.66 3056.93 1476.61C3057.13 1476.52 3056.34 1476.91 3055.19 1477.2C3050.11 1478.56 3044.62 1479.79 3038.8 1481.21C2953.46 1501.98 2871.76 1537.63 2798.25 1585.48C2686.65 1657.72 2589.48 1751.87 2512.22 1859.71C2510.17 1862.58 2508.11 1865.4 2505.79 1869.14C2504.63 1871.06 2503.38 1873.16 2502.07 1876.33C2500.87 1879.45 2499.06 1884.51 2500.35 1891.57C2501.73 1898.67 2505.93 1903.33 2508.54 1905.73C2511.33 1908.25 2513.47 1909.58 2515.45 1910.82C2519.34 1913.18 2522.53 1914.75 2525.72 1916.35C2586.4 1946.55 2643.63 1983.05 2689.65 2030.99C2795.84 2137.53 2854.41 2288.53 2834.62 2437.87C2820.56 2584.43 2738.4 2721.35 2610.34 2794.46C2475.63 2881.16 2297.37 2885.78 2165.47 2793.33C2038.67 2710.77 1964.61 2548.12 1990.11 2398.86C2012.35 2260.02 2146.07 2143.76 2287.13 2156.54C2392.59 2163.97 2492.1 2246.29 2508.89 2350.97C2526.63 2440.22 2468.96 2539.24 2378.74 2554C2304.11 2570.58 2223.37 2498.1 2235.7 2422.34C2239.89 2384.92 2275.89 2354.25 2313.48 2356C2341.78 2356.57 2369.86 2394.26 2350.79 2416.47C2349.04 2419.12 2346.94 2422.29 2346.26 2428.33C2345.06 2433.91 2349.67 2445.48 2357.95 2448.38C2373.73 2453.34 2379.71 2445.55 2384.09 2441.75C2403.3 2420.13 2407.41 2392.39 2401 2366.75C2383.93 2302.39 2309.15 2276.8 2253.45 2293.52C2176.64 2313.03 2133.48 2399.37 2149.21 2472.29C2160.52 2547.86 2220.06 2615.29 2292.2 2638.21C2368.68 2668.84 2463.83 2648.42 2522.73 2592.07C2642.79 2487.78 2643.55 2286.94 2533.74 2176.08C2439.5 2068.88 2275.04 2027.43 2141.75 2079.37C1979.99 2127.28 1866.13 2286.44 1851.06 2450.26C1832.57 2580.67 1871.48 2717.15 1950.94 2821.02C2066.04 2982.67 2263.92 3081.65 2461.95 3078.13C2637.26 3081.54 2811.36 3008.47 2935.99 2886.6C3071.03 2759.05 3166.99 2593.78 3223.52 2418.27C3287.1 2225.11 3304.97 2017 3275.28 1815.96C3238.57 1547.69 3116.6 1289.92 2925.01 1097.71C2773.63 942.111 2582.63 824.14 2373.95 763.437C2229.78 720.62 2078.04 701.452 1927.75 711.368C1791.19 720.038 1655.48 748.261 1527.9 798.226C1378.36 856.333 1241.53 945.23 1124.69 1054.57C1087.07 1089.65 1051.53 1126.95 1018.43 1166.3C904.596 1301.03 821.635 1460.72 772 1629.51C727.468 1779.02 709.664 1936.54 720.679 2092.1C728.91 2212.39 754.039 2331.55 795.629 2444.68C853.632 2603.88 944.258 2751.14 1060.86 2873.95C1198.7 3020.6 1369.52 3136.8 1558.44 3206.39C1662.23 3245.06 1771.3 3268.24 1881.23 3280.06ZM1881.34 3279.07L1881.23 3280.06L1881.24 3280.06L1881.32 3279.06L1881.34 3279.07Z" fill="black" mask="url(#path-2-inside-1_1_16)"/>
</svg>
